<?xml version="1.0" standalone="no"?>
<!DOCTYPE svg PUBLIC "-//W3C//DTD SVG 20010904//EN"
 "http://www.w3.org/TR/2001/REC-SVG-20010904/DTD/svg10.dtd">
<svg version="1.0" xmlns="http://www.w3.org/2000/svg"
 width="560.000000pt" height="560.000000pt" viewBox="0 0 560.000000 560.000000"
 preserveAspectRatio="xMidYMid meet">
<metadata>
Created by potrace 1.14, written by Peter Selinger 2001-2017
</metadata>
<g transform="translate(0.000000,560.000000) scale(0.100000,-0.100000)"
fill="#000000" stroke="none">
<path d="M2415 5015 c-22 -8 -59 -34 -82 -59 -38 -39 -43 -51 -43 -90 0 -25 5
-48 10 -51 6 -3 10 -15 10 -26 0 -10 -4 -19 -10 -19 -5 0 -10 8 -10 17 0 9 -3
13 -6 10 -4 -4 -19 2 -35 13 -15 11 -40 22 -56 24 -15 2 -21 1 -13 -1 8 -2 26
-13 40 -23 l25 -20 -53 0 c-58 0 -189 -27 -197 -40 -3 -4 16 -2 42 6 77 23 82
16 11 -20 -140 -70 -244 -169 -329 -314 -65 -110 -143 -219 -291 -404 -65 -82
-118 -155 -118 -164 0 -10 38 -100 85 -200 47 -101 85 -187 85 -191 0 -5 21
-64 46 -133 l45 -124 -25 -46 c-44 -81 -59 -155 -52 -250 6 -83 32 -194 56
-241 34 -63 134 -198 156 -208 14 -6 42 -14 63 -17 l38 -6 57 -205 c61 -220
81 -262 173 -371 49 -59 65 -92 88 -193 6 -25 2 -27 -142 -83 -81 -32 -218
-82 -303 -111 -85 -29 -240 -83 -345 -120 -271 -95 -465 -138 -716 -160 -42
-4 -82 -11 -89 -15 -35 -22 310 -401 509 -559 413 -327 845 -515 1381 -598
163 -25 597 -25 760 0 456 71 829 215 1191 458 227 152 469 378 632 589 102
130 103 123 -33 134 -132 11 -284 34 -405 63 -114 26 -621 198 -900 304 -195
74 -210 78 -170 47 111 -86 138 -129 159 -253 46 -261 -3 -450 -180 -700 -82
-115 -94 -126 -221 -189 -113 -56 -174 -77 -347 -115 l-138 -31 -117 26 c-152
34 -204 52 -344 119 -141 68 -172 92 -206 165 -15 30 -45 87 -68 125 -41 70
-63 116 -89 188 l-13 37 57 -36 c92 -58 192 -138 261 -208 36 -36 68 -63 73
-60 10 6 0 101 -13 126 -5 9 -25 87 -44 172 -30 135 -33 162 -25 207 6 28 10
75 10 104 0 30 5 57 13 62 15 12 291 63 338 63 19 0 63 -9 99 -20 96 -29 184
-23 230 16 8 7 42 27 74 44 33 17 89 52 125 78 106 74 344 252 339 252 -2 0
-69 -29 -148 -66 -125 -56 -168 -70 -308 -100 -177 -37 -229 -40 -337 -21 -89
17 -182 73 -298 184 l-86 80 -46 134 c-47 133 -178 492 -211 579 -10 25 -22
51 -28 58 -5 8 -76 63 -156 122 -80 60 -153 117 -162 127 -22 24 -35 240 -19
331 5 35 36 158 68 272 l58 208 135 60 c304 134 609 215 667 177 13 -9 27 -24
31 -33 4 -9 13 -18 21 -20 10 -2 12 5 8 28 -8 39 -4 38 23 -6 12 -19 24 -33
27 -30 7 7 -35 84 -83 154 -24 35 -51 76 -59 91 l-14 29 67 -6 c43 -3 95 -16
147 -38 44 -18 159 -59 255 -93 269 -92 504 -203 675 -318 141 -95 131 -79
177 -266 39 -157 42 -167 65 -167 22 0 42 -17 77 -65 8 -11 16 -18 19 -15 3 3
41 96 85 206 44 111 99 238 121 282 23 45 41 88 41 96 0 8 -18 60 -40 116 -58
150 -213 365 -476 659 -132 148 -195 209 -265 255 -24 16 -56 37 -70 47 -51
34 -492 159 -632 178 -113 16 -333 13 -382 -4z m-268 -241 c-3 -3 -12 -4 -19
-1 -8 3 -5 6 6 6 11 1 17 -2 13 -5z"/>
<path d="M3923 3113 c8 -131 -14 -302 -63 -468 l-20 -69 21 20 c27 27 58 145
69 259 12 119 22 167 37 172 16 6 40 -34 48 -79 6 -33 4 -40 -26 -68 -32 -29
-33 -31 -19 -62 15 -37 19 -102 7 -135 -16 -45 9 -22 42 39 35 63 43 108 45
254 1 49 -5 72 -32 126 -32 63 -60 88 -99 88 -13 0 -15 -11 -10 -77z"/>
</g>
</svg>
