<svg width="980" height="221" viewBox="0 0 980 221" fill="none" xmlns="http://www.w3.org/2000/svg">
<g id="Inspiring">
<mask id="path-1-inside-1_2_2" fill="white">
<path d="M0.921875 0.59375H78.3916V5.81252H56.9366V161.68H78.3916V166.898H0.921875V161.68H22.2608V5.81252H0.921875V0.59375Z"/>
<path d="M151.454 166.898H93.1201V162.144H108.312V66.2342H93.1201V61.4794H137.19V78.0634H137.77C141.79 71.8009 146.429 66.9687 151.686 63.5669C157.949 59.6238 164.946 57.6523 172.677 57.6523C183.269 57.6523 191.581 61.2088 197.611 68.3217C203.255 75.2028 206.077 85.563 206.077 99.4024V162.144H221.27V166.898H162.936V162.144H177.2V99.4024C177.2 91.9801 176.968 86.4521 176.504 82.8183C176.118 79.1845 175.306 76.2465 174.069 74.0044C171.595 69.4428 167.884 67.162 162.936 67.162C156.364 67.162 150.72 70.2546 146.004 76.4398C142.215 81.156 139.78 85.9109 138.697 90.7044C137.692 95.4207 137.19 101.258 137.19 108.216V162.144H151.454V166.898Z"/>
<path d="M471.655 61.4794H515.724V162.144H531.033V166.898H471.655V162.144H486.847V66.2342H471.655V61.4794ZM488.935 33.6459C485.61 30.2441 483.948 26.2237 483.948 21.5848C483.948 16.9459 485.61 12.9255 488.935 9.52364C492.336 6.12178 496.357 4.42085 500.996 4.42085C505.635 4.42085 509.655 6.12178 513.057 9.52364C516.459 12.9255 518.16 16.9459 518.16 21.5848C518.16 26.2237 516.459 30.2441 513.057 33.6459C509.655 36.9705 505.635 38.6328 500.996 38.6328C496.357 38.6328 492.336 36.9705 488.935 33.6459Z"/>
<path d="M604.559 166.898H545.181V162.144H560.374V66.2342H545.181V61.4794H585.54V83.7461H586.004C587.086 77.0197 589.831 71.1824 594.238 66.2342C599.263 60.5129 605.294 57.6523 612.329 57.6523C618.283 57.6523 623.115 59.6238 626.826 63.5669C630.924 67.6646 632.973 73.5405 632.973 81.1947C632.973 86.6068 631.619 90.9364 628.913 94.1836C626.053 97.6628 622.342 99.4024 617.78 99.4024C613.45 99.4024 609.971 98.2427 607.343 95.9232C604.327 93.2172 602.82 89.738 602.82 85.4857C602.82 81.4653 604.25 77.7928 607.111 74.4683C607.497 73.9271 608.038 73.2699 608.734 72.4968C609.507 71.7236 610.049 71.1437 610.358 70.7572C610.744 70.2933 611.092 69.7521 611.402 69.1335C611.711 68.515 611.865 67.9352 611.865 67.394C611.865 66.6208 611.402 65.8477 610.474 65.0745C609.546 64.224 608.348 63.7988 606.879 63.7988C604.868 63.7988 602.82 64.6493 600.732 66.3502C598.722 68.0511 596.905 70.2933 595.281 73.0766C591.261 80.1123 589.251 90.0859 589.251 102.998V162.144H604.559V166.898Z"/>
<path d="M643.062 61.4794H687.132V162.144H702.44V166.898H643.062V162.144H658.255V66.2342H643.062V61.4794ZM660.342 33.6459C657.017 30.2441 655.355 26.2237 655.355 21.5848C655.355 16.9459 657.017 12.9255 660.342 9.52364C663.744 6.12178 667.764 4.42085 672.403 4.42085C677.042 4.42085 681.062 6.12178 684.464 9.52364C687.866 12.9255 689.567 16.9459 689.567 21.5848C689.567 26.2237 687.866 30.2441 684.464 33.6459C681.062 36.9705 677.042 38.6328 672.403 38.6328C667.764 38.6328 663.744 36.9705 660.342 33.6459Z"/>
<path d="M774.923 166.898H716.589V162.144H731.781V66.2342H716.589V61.4794H760.658V78.0634H761.238C765.259 71.8009 769.897 66.9687 775.155 63.5669C781.417 59.6238 788.414 57.6523 796.146 57.6523C806.738 57.6523 815.049 61.2088 821.08 68.3217C826.724 75.2028 829.546 85.563 829.546 99.4024V162.144H844.738V166.898H786.404V162.144H800.669V99.4024C800.669 91.9801 800.437 86.4521 799.973 82.8183C799.586 79.1845 798.775 76.2465 797.538 74.0044C795.064 69.4428 791.352 67.162 786.404 67.162C779.832 67.162 774.188 70.2546 769.472 76.4398C765.684 81.156 763.248 85.9109 762.166 90.7044C761.161 95.4207 760.658 101.258 760.658 108.216V162.144H774.923V166.898Z"/>
<path d="M891.475 131.063V130.599C885.754 127.97 880.922 124.221 876.979 119.35C871.953 113.087 869.441 105.51 869.441 96.6191C869.441 84.1713 873.77 74.4296 882.43 67.394C890.316 60.8995 900.637 57.6523 913.394 57.6523C921.512 57.6523 929.089 59.4692 936.125 63.103C937.748 59.5465 940.223 55.99 943.547 52.4335C948.805 46.8668 955.222 44.0835 962.799 44.0835C967.747 44.0835 971.69 45.3592 974.628 47.9106C977.952 50.6939 979.615 54.637 979.615 59.7398C979.615 62.9097 978.803 65.5384 977.179 67.6259C975.014 70.3319 971.96 71.6849 968.017 71.6849C964.538 71.6849 961.755 70.6412 959.667 68.5537C957.734 66.6208 956.768 64.1081 956.768 61.0155C956.768 59.8557 957.193 58.0002 958.044 55.4488C958.662 53.3613 958.971 52.2789 958.971 52.2016C958.971 50.8872 958.082 50.23 956.304 50.23C953.366 50.23 950.274 52.0856 947.026 55.7967C944.707 58.6574 942.581 61.9819 940.648 65.7703C944.359 67.8578 947.413 70.4866 949.81 73.6565C952.284 76.7491 953.985 79.9577 954.912 83.2822C955.918 86.5294 956.536 89.1195 956.768 91.0524C957.077 92.9852 957.232 94.7635 957.232 96.3871C957.232 109.608 952.593 119.814 943.315 127.004C935.661 133.034 925.185 136.05 911.887 136.05C910.495 136.05 908.407 136.011 905.624 135.934C902.841 135.856 900.753 135.818 899.362 135.818C892.171 135.818 887.184 136.514 884.401 137.905C881.386 139.374 879.878 141.578 879.878 144.516C879.878 148.227 882.468 150.546 887.648 151.474C893.834 152.402 903.421 152.943 916.41 153.098C923.754 153.175 929.244 153.33 932.878 153.562C936.511 153.716 940.88 154.296 945.983 155.301C951.163 156.306 955.57 157.814 959.203 159.824C969.641 165.7 974.86 174.321 974.86 185.686C974.86 197.515 969.177 206.445 957.812 212.476C947.838 217.888 932.916 220.594 913.046 220.594C899.439 220.594 888.46 219.086 880.11 216.071C867.276 211.432 860.859 204.242 860.859 194.5C860.859 188.933 863.487 184.178 868.745 180.235C874.08 176.292 880.303 174.05 887.416 173.509V173.045C881.85 171.808 877.172 169.682 873.384 166.666C868.513 162.646 866.077 157.659 866.077 151.706C866.077 144.67 869.325 139.297 875.819 135.586C879.994 133.112 885.213 131.604 891.475 131.063ZM913.394 131.295C919.811 131.295 924.373 128.202 927.079 122.017C928.857 117.687 929.746 109.299 929.746 96.851C929.746 84.4033 928.857 76.0146 927.079 71.6849C924.373 65.4997 919.811 62.4071 913.394 62.4071C906.9 62.4071 902.3 65.4997 899.594 71.6849C897.815 76.0146 896.926 84.4033 896.926 96.851C896.926 109.299 897.815 117.687 899.594 122.017C902.3 128.202 906.9 131.295 913.394 131.295ZM872.224 194.964C872.224 201.072 875.935 206.213 883.357 210.388C890.238 214.022 900.405 215.839 913.858 215.839C927.079 215.839 937.748 214.409 945.867 211.548C951.743 209.46 955.956 206.87 958.508 203.778C961.136 200.685 962.451 197.593 962.451 194.5C962.451 189.784 959.938 185.957 954.912 183.019C947.877 178.921 934.579 176.872 915.018 176.872C895.766 176.872 883.241 179.153 877.443 183.714C873.964 186.498 872.224 190.248 872.224 194.964Z"/>
<path fillRule="evenodd" clip-rule="evenodd" d="M339.098 220.594H398.476V215.839H383.284V155.069H383.747C386.84 160.404 390.938 164.347 396.041 166.898C401.143 169.45 406.555 170.726 412.277 170.726C424.724 170.726 435.085 165.082 443.357 153.794C450.857 143.743 454.607 130.444 454.607 113.899C454.607 95.4207 449.929 80.8468 440.574 70.1773C433.152 61.8273 424.183 57.6523 413.668 57.6523C407.56 57.6523 401.8 59.2759 396.388 62.5231C391.054 65.7703 386.84 70.1773 383.747 75.744H383.284V40.7203C383.284 22.1647 371.347 7.32016 354.29 7.32016C348.191 7.32016 332.811 7.8382 326.815 22.6618C328.282 22.3609 329.805 22.1929 331.38 22.1679C337.108 11.8551 348.804 11.0313 354.29 11.0313C361.713 11.0313 376.325 18.4535 376.325 40.7203C376.325 58.5337 351.507 62.987 339.098 62.987V66.2342H354.29V215.839H339.098V220.594ZM405.898 163.071C402.96 163.071 399.984 162.144 396.968 160.288C393.953 158.432 391.286 155.494 388.966 151.474C384.25 143.511 381.892 131.14 381.892 114.363C381.892 99.2091 384.095 87.4186 388.502 78.9912C390.899 74.3523 393.682 70.9118 396.852 68.6697C400.1 66.3502 403.347 65.1905 406.594 65.1905C413.707 65.1905 418.23 71.3757 420.163 83.7461C421.554 92.792 422.25 103.152 422.25 114.827C422.25 129.362 421.477 140.379 419.931 147.879C418.771 153.6 416.877 157.582 414.248 159.824C411.619 161.989 408.836 163.071 405.898 163.071Z"/>
<path d="M306.278 89.8926H311.96V53.4577C311.96 40.0254 317.506 30.4586 325.409 27.1482C325.788 25.5233 326.261 24.0315 326.815 22.6618C314.179 25.255 305.814 37.7152 305.814 53.4577C305.814 60.6788 301.02 62.742 298.624 62.871C297.773 62.871 296.845 62.7937 295.84 62.6391C294.912 62.4071 294.062 62.1752 293.289 61.9432C292.516 61.7113 291.433 61.3634 290.042 60.8995C288.65 60.4356 287.413 60.049 286.33 59.7398C281.846 58.3481 277.246 57.6523 272.53 57.6523C261.01 57.6523 252.003 61.2088 245.508 68.3217C240.096 74.3523 237.39 81.5426 237.39 89.8926C237.39 94.7635 238.163 99.1704 239.709 103.114C241.333 107.057 243.498 110.304 246.204 112.855C248.91 115.329 251.539 117.339 254.09 118.886C256.641 120.355 259.386 121.63 262.324 122.713C268.509 124.955 275.042 126.617 281.923 127.7C288.805 128.782 293.907 130.135 297.232 131.759C304.809 135.393 308.597 140.843 308.597 148.111C308.597 153.059 306.471 157.35 302.219 160.984C297.966 164.308 292.438 165.971 285.635 165.971C277.826 165.971 270.597 163.922 263.948 159.824C258.536 156.5 254.09 152.286 250.611 147.183C247.132 142.003 244.851 136.32 243.768 130.135H238.086V170.726H243.768C243.846 169.102 244.58 167.826 245.972 166.898C247.364 165.971 249.026 165.507 250.959 165.507C252.273 165.507 255.752 166.28 261.396 167.826C268.973 169.759 276.009 170.726 282.503 170.726C293.327 170.726 302.451 168.02 309.873 162.607C318.532 156.268 322.862 147.338 322.862 135.818C322.862 130.947 322.127 126.501 320.658 122.481C319.189 118.461 317.411 115.213 315.324 112.739C313.236 110.188 310.723 107.946 307.785 106.013C304.847 104.003 302.219 102.534 299.899 101.606C297.58 100.678 295.106 99.8663 292.477 99.1704C286.91 97.6241 280.918 96.3871 274.501 95.4593C268.161 94.5315 263.561 93.4105 260.7 92.0961C254.67 89.3901 251.655 85.0991 251.655 79.2232C251.655 77.0583 251.964 75.2414 252.582 73.7725C253.201 71.9169 254.477 70.0227 256.409 68.0898C260.43 64.3014 265.803 62.4071 272.53 62.4071C279.952 62.4071 286.446 64.456 292.013 68.5537C298.817 73.4245 303.572 80.5375 306.278 89.8926Z"/>
<path d="M331.38 22.1679C329.805 22.1929 328.282 22.3609 326.815 22.6618C326.261 24.0315 325.788 25.5233 325.409 27.1482C326.773 26.5768 328.207 26.1918 329.696 26.0055C330.171 24.599 330.738 23.3239 331.38 22.1679Z"/>
<path d="M346.636 37.0091C346.636 51.8536 328.081 51.8536 328.081 37.0091C328.081 32.6543 328.676 29.0268 329.696 26.0055C328.207 26.1918 326.773 26.5768 325.409 27.1482C324.743 30.0045 324.369 33.2718 324.369 37.0091C324.369 55.5648 350.347 55.5648 350.347 37.0091C350.347 29.5869 346.636 22.1647 331.792 22.1647C331.654 22.1647 331.517 22.1658 331.38 22.1679C330.738 23.3239 330.171 24.599 329.696 26.0055C330.383 25.9194 331.083 25.8758 331.792 25.8758C338.906 25.8758 346.636 29.1149 346.636 37.0091Z"/>
</mask>
<path d="M0.921875 0.59375H78.3916V5.81252H56.9366V161.68H78.3916V166.898H0.921875V161.68H22.2608V5.81252H0.921875V0.59375Z" fill="white"/>
<path d="M151.454 166.898H93.1201V162.144H108.312V66.2342H93.1201V61.4794H137.19V78.0634H137.77C141.79 71.8009 146.429 66.9687 151.686 63.5669C157.949 59.6238 164.946 57.6523 172.677 57.6523C183.269 57.6523 191.581 61.2088 197.611 68.3217C203.255 75.2028 206.077 85.563 206.077 99.4024V162.144H221.27V166.898H162.936V162.144H177.2V99.4024C177.2 91.9801 176.968 86.4521 176.504 82.8183C176.118 79.1845 175.306 76.2465 174.069 74.0044C171.595 69.4428 167.884 67.162 162.936 67.162C156.364 67.162 150.72 70.2546 146.004 76.4398C142.215 81.156 139.78 85.9109 138.697 90.7044C137.692 95.4207 137.19 101.258 137.19 108.216V162.144H151.454V166.898Z" fill="white"/>
<path d="M471.655 61.4794H515.724V162.144H531.033V166.898H471.655V162.144H486.847V66.2342H471.655V61.4794ZM488.935 33.6459C485.61 30.2441 483.948 26.2237 483.948 21.5848C483.948 16.9459 485.61 12.9255 488.935 9.52364C492.336 6.12178 496.357 4.42085 500.996 4.42085C505.635 4.42085 509.655 6.12178 513.057 9.52364C516.459 12.9255 518.16 16.9459 518.16 21.5848C518.16 26.2237 516.459 30.2441 513.057 33.6459C509.655 36.9705 505.635 38.6328 500.996 38.6328C496.357 38.6328 492.336 36.9705 488.935 33.6459Z" fill="white"/>
<path d="M604.559 166.898H545.181V162.144H560.374V66.2342H545.181V61.4794H585.54V83.7461H586.004C587.086 77.0197 589.831 71.1824 594.238 66.2342C599.263 60.5129 605.294 57.6523 612.329 57.6523C618.283 57.6523 623.115 59.6238 626.826 63.5669C630.924 67.6646 632.973 73.5405 632.973 81.1947C632.973 86.6068 631.619 90.9364 628.913 94.1836C626.053 97.6628 622.342 99.4024 617.78 99.4024C613.45 99.4024 609.971 98.2427 607.343 95.9232C604.327 93.2172 602.82 89.738 602.82 85.4857C602.82 81.4653 604.25 77.7928 607.111 74.4683C607.497 73.9271 608.038 73.2699 608.734 72.4968C609.507 71.7236 610.049 71.1437 610.358 70.7572C610.744 70.2933 611.092 69.7521 611.402 69.1335C611.711 68.515 611.865 67.9352 611.865 67.394C611.865 66.6208 611.402 65.8477 610.474 65.0745C609.546 64.224 608.348 63.7988 606.879 63.7988C604.868 63.7988 602.82 64.6493 600.732 66.3502C598.722 68.0511 596.905 70.2933 595.281 73.0766C591.261 80.1123 589.251 90.0859 589.251 102.998V162.144H604.559V166.898Z" fill="white"/>
<path d="M643.062 61.4794H687.132V162.144H702.44V166.898H643.062V162.144H658.255V66.2342H643.062V61.4794ZM660.342 33.6459C657.017 30.2441 655.355 26.2237 655.355 21.5848C655.355 16.9459 657.017 12.9255 660.342 9.52364C663.744 6.12178 667.764 4.42085 672.403 4.42085C677.042 4.42085 681.062 6.12178 684.464 9.52364C687.866 12.9255 689.567 16.9459 689.567 21.5848C689.567 26.2237 687.866 30.2441 684.464 33.6459C681.062 36.9705 677.042 38.6328 672.403 38.6328C667.764 38.6328 663.744 36.9705 660.342 33.6459Z" fill="white"/>
<path d="M774.923 166.898H716.589V162.144H731.781V66.2342H716.589V61.4794H760.658V78.0634H761.238C765.259 71.8009 769.897 66.9687 775.155 63.5669C781.417 59.6238 788.414 57.6523 796.146 57.6523C806.738 57.6523 815.049 61.2088 821.08 68.3217C826.724 75.2028 829.546 85.563 829.546 99.4024V162.144H844.738V166.898H786.404V162.144H800.669V99.4024C800.669 91.9801 800.437 86.4521 799.973 82.8183C799.586 79.1845 798.775 76.2465 797.538 74.0044C795.064 69.4428 791.352 67.162 786.404 67.162C779.832 67.162 774.188 70.2546 769.472 76.4398C765.684 81.156 763.248 85.9109 762.166 90.7044C761.161 95.4207 760.658 101.258 760.658 108.216V162.144H774.923V166.898Z" fill="white"/>
<path d="M891.475 131.063V130.599C885.754 127.97 880.922 124.221 876.979 119.35C871.953 113.087 869.441 105.51 869.441 96.6191C869.441 84.1713 873.77 74.4296 882.43 67.394C890.316 60.8995 900.637 57.6523 913.394 57.6523C921.512 57.6523 929.089 59.4692 936.125 63.103C937.748 59.5465 940.223 55.99 943.547 52.4335C948.805 46.8668 955.222 44.0835 962.799 44.0835C967.747 44.0835 971.69 45.3592 974.628 47.9106C977.952 50.6939 979.615 54.637 979.615 59.7398C979.615 62.9097 978.803 65.5384 977.179 67.6259C975.014 70.3319 971.96 71.6849 968.017 71.6849C964.538 71.6849 961.755 70.6412 959.667 68.5537C957.734 66.6208 956.768 64.1081 956.768 61.0155C956.768 59.8557 957.193 58.0002 958.044 55.4488C958.662 53.3613 958.971 52.2789 958.971 52.2016C958.971 50.8872 958.082 50.23 956.304 50.23C953.366 50.23 950.274 52.0856 947.026 55.7967C944.707 58.6574 942.581 61.9819 940.648 65.7703C944.359 67.8578 947.413 70.4866 949.81 73.6565C952.284 76.7491 953.985 79.9577 954.912 83.2822C955.918 86.5294 956.536 89.1195 956.768 91.0524C957.077 92.9852 957.232 94.7635 957.232 96.3871C957.232 109.608 952.593 119.814 943.315 127.004C935.661 133.034 925.185 136.05 911.887 136.05C910.495 136.05 908.407 136.011 905.624 135.934C902.841 135.856 900.753 135.818 899.362 135.818C892.171 135.818 887.184 136.514 884.401 137.905C881.386 139.374 879.878 141.578 879.878 144.516C879.878 148.227 882.468 150.546 887.648 151.474C893.834 152.402 903.421 152.943 916.41 153.098C923.754 153.175 929.244 153.33 932.878 153.562C936.511 153.716 940.88 154.296 945.983 155.301C951.163 156.306 955.57 157.814 959.203 159.824C969.641 165.7 974.86 174.321 974.86 185.686C974.86 197.515 969.177 206.445 957.812 212.476C947.838 217.888 932.916 220.594 913.046 220.594C899.439 220.594 888.46 219.086 880.11 216.071C867.276 211.432 860.859 204.242 860.859 194.5C860.859 188.933 863.487 184.178 868.745 180.235C874.08 176.292 880.303 174.05 887.416 173.509V173.045C881.85 171.808 877.172 169.682 873.384 166.666C868.513 162.646 866.077 157.659 866.077 151.706C866.077 144.67 869.325 139.297 875.819 135.586C879.994 133.112 885.213 131.604 891.475 131.063ZM913.394 131.295C919.811 131.295 924.373 128.202 927.079 122.017C928.857 117.687 929.746 109.299 929.746 96.851C929.746 84.4033 928.857 76.0146 927.079 71.6849C924.373 65.4997 919.811 62.4071 913.394 62.4071C906.9 62.4071 902.3 65.4997 899.594 71.6849C897.815 76.0146 896.926 84.4033 896.926 96.851C896.926 109.299 897.815 117.687 899.594 122.017C902.3 128.202 906.9 131.295 913.394 131.295ZM872.224 194.964C872.224 201.072 875.935 206.213 883.357 210.388C890.238 214.022 900.405 215.839 913.858 215.839C927.079 215.839 937.748 214.409 945.867 211.548C951.743 209.46 955.956 206.87 958.508 203.778C961.136 200.685 962.451 197.593 962.451 194.5C962.451 189.784 959.938 185.957 954.912 183.019C947.877 178.921 934.579 176.872 915.018 176.872C895.766 176.872 883.241 179.153 877.443 183.714C873.964 186.498 872.224 190.248 872.224 194.964Z" fill="white"/>
<path fillRule="evenodd" clipRule="evenodd" d="M339.098 220.594H398.476V215.839H383.284V155.069H383.747C386.84 160.404 390.938 164.347 396.041 166.898C401.143 169.45 406.555 170.726 412.277 170.726C424.724 170.726 435.085 165.082 443.357 153.794C450.857 143.743 454.607 130.444 454.607 113.899C454.607 95.4207 449.929 80.8468 440.574 70.1773C433.152 61.8273 424.183 57.6523 413.668 57.6523C407.56 57.6523 401.8 59.2759 396.388 62.5231C391.054 65.7703 386.84 70.1773 383.747 75.744H383.284V40.7203C383.284 22.1647 371.347 7.32016 354.29 7.32016C348.191 7.32016 332.811 7.8382 326.815 22.6618C328.282 22.3609 329.805 22.1929 331.38 22.1679C337.108 11.8551 348.804 11.0313 354.29 11.0313C361.713 11.0313 376.325 18.4535 376.325 40.7203C376.325 58.5337 351.507 62.987 339.098 62.987V66.2342H354.29V215.839H339.098V220.594ZM405.898 163.071C402.96 163.071 399.984 162.144 396.968 160.288C393.953 158.432 391.286 155.494 388.966 151.474C384.25 143.511 381.892 131.14 381.892 114.363C381.892 99.2091 384.095 87.4186 388.502 78.9912C390.899 74.3523 393.682 70.9118 396.852 68.6697C400.1 66.3502 403.347 65.1905 406.594 65.1905C413.707 65.1905 418.23 71.3757 420.163 83.7461C421.554 92.792 422.25 103.152 422.25 114.827C422.25 129.362 421.477 140.379 419.931 147.879C418.771 153.6 416.877 157.582 414.248 159.824C411.619 161.989 408.836 163.071 405.898 163.071Z" fill="white"/>
<path d="M306.278 89.8926H311.96V53.4577C311.96 40.0254 317.506 30.4586 325.409 27.1482C325.788 25.5233 326.261 24.0315 326.815 22.6618C314.179 25.255 305.814 37.7152 305.814 53.4577C305.814 60.6788 301.02 62.742 298.624 62.871C297.773 62.871 296.845 62.7937 295.84 62.6391C294.912 62.4071 294.062 62.1752 293.289 61.9432C292.516 61.7113 291.433 61.3634 290.042 60.8995C288.65 60.4356 287.413 60.049 286.33 59.7398C281.846 58.3481 277.246 57.6523 272.53 57.6523C261.01 57.6523 252.003 61.2088 245.508 68.3217C240.096 74.3523 237.39 81.5426 237.39 89.8926C237.39 94.7635 238.163 99.1704 239.709 103.114C241.333 107.057 243.498 110.304 246.204 112.855C248.91 115.329 251.539 117.339 254.09 118.886C256.641 120.355 259.386 121.63 262.324 122.713C268.509 124.955 275.042 126.617 281.923 127.7C288.805 128.782 293.907 130.135 297.232 131.759C304.809 135.393 308.597 140.843 308.597 148.111C308.597 153.059 306.471 157.35 302.219 160.984C297.966 164.308 292.438 165.971 285.635 165.971C277.826 165.971 270.597 163.922 263.948 159.824C258.536 156.5 254.09 152.286 250.611 147.183C247.132 142.003 244.851 136.32 243.768 130.135H238.086V170.726H243.768C243.846 169.102 244.58 167.826 245.972 166.898C247.364 165.971 249.026 165.507 250.959 165.507C252.273 165.507 255.752 166.28 261.396 167.826C268.973 169.759 276.009 170.726 282.503 170.726C293.327 170.726 302.451 168.02 309.873 162.607C318.532 156.268 322.862 147.338 322.862 135.818C322.862 130.947 322.127 126.501 320.658 122.481C319.189 118.461 317.411 115.213 315.324 112.739C313.236 110.188 310.723 107.946 307.785 106.013C304.847 104.003 302.219 102.534 299.899 101.606C297.58 100.678 295.106 99.8663 292.477 99.1704C286.91 97.6241 280.918 96.3871 274.501 95.4593C268.161 94.5315 263.561 93.4105 260.7 92.0961C254.67 89.3901 251.655 85.0991 251.655 79.2232C251.655 77.0583 251.964 75.2414 252.582 73.7725C253.201 71.9169 254.477 70.0227 256.409 68.0898C260.43 64.3014 265.803 62.4071 272.53 62.4071C279.952 62.4071 286.446 64.456 292.013 68.5537C298.817 73.4245 303.572 80.5375 306.278 89.8926Z" fill="white"/>
<path d="M331.38 22.1679C329.805 22.1929 328.282 22.3609 326.815 22.6618C326.261 24.0315 325.788 25.5233 325.409 27.1482C326.773 26.5768 328.207 26.1918 329.696 26.0055C330.171 24.599 330.738 23.3239 331.38 22.1679Z" fill="white"/>
<path d="M346.636 37.0091C346.636 51.8536 328.081 51.8536 328.081 37.0091C328.081 32.6543 328.676 29.0268 329.696 26.0055C328.207 26.1918 326.773 26.5768 325.409 27.1482C324.743 30.0045 324.369 33.2718 324.369 37.0091C324.369 55.5648 350.347 55.5648 350.347 37.0091C350.347 29.5869 346.636 22.1647 331.792 22.1647C331.654 22.1647 331.517 22.1658 331.38 22.1679C330.738 23.3239 330.171 24.599 329.696 26.0055C330.383 25.9194 331.083 25.8758 331.792 25.8758C338.906 25.8758 346.636 29.1149 346.636 37.0091Z" fill="white"/>
<path d="M326.815 22.6618L326.715 22.172L326.452 22.2259L326.352 22.4743L326.815 22.6618ZM331.38 22.1679L331.817 22.4107L332.237 21.6543L331.372 21.668L331.38 22.1679ZM325.409 27.1482L324.922 27.0347L324.7 27.9874L325.602 27.6094L325.409 27.1482ZM329.696 26.0055L329.758 26.5016L330.069 26.4627L330.169 26.1655L329.696 26.0055ZM326.916 23.1516C328.351 22.8571 329.843 22.6924 331.388 22.6679L331.372 21.668C329.766 21.6935 328.212 21.8648 326.715 22.172L326.916 23.1516ZM325.896 27.2618C326.269 25.6608 326.735 24.1938 327.279 22.8492L326.352 22.4743C325.788 23.8692 325.306 25.3859 324.922 27.0347L325.896 27.2618ZM325.602 27.6094C326.924 27.0554 328.315 26.6823 329.758 26.5016L329.634 25.5094C328.1 25.7013 326.621 26.0981 325.216 26.687L325.602 27.6094ZM330.169 26.1655C330.635 24.7866 331.19 23.5393 331.817 22.4107L330.943 21.9252C330.285 23.1084 329.706 24.4114 329.222 25.8456L330.169 26.1655ZM0.921875 0.59375V-0.40625H-0.078125V0.59375H0.921875ZM78.3916 0.59375H79.3916V-0.40625H78.3916V0.59375ZM78.3916 5.81252V6.81252H79.3916V5.81252H78.3916ZM56.9366 5.81252V4.81252H55.9366V5.81252H56.9366ZM56.9366 161.68H55.9366V162.68H56.9366V161.68ZM78.3916 161.68H79.3916V160.68H78.3916V161.68ZM78.3916 166.898V167.898H79.3916V166.898H78.3916ZM0.921875 166.898H-0.078125V167.898H0.921875V166.898ZM0.921875 161.68V160.68H-0.078125V161.68H0.921875ZM22.2608 161.68V162.68H23.2608V161.68H22.2608ZM22.2608 5.81252H23.2608V4.81252H22.2608V5.81252ZM0.921875 5.81252H-0.078125V6.81252H0.921875V5.81252ZM151.454 166.898V167.898H152.454V166.898H151.454ZM93.1201 166.898H92.1201V167.898H93.1201V166.898ZM93.1201 162.144V161.144H92.1201V162.144H93.1201ZM108.312 162.144V163.144H109.312V162.144H108.312ZM108.312 66.2342H109.312V65.2342H108.312V66.2342ZM93.1201 66.2342H92.1201V67.2342H93.1201V66.2342ZM93.1201 61.4794V60.4794H92.1201V61.4794H93.1201ZM137.19 61.4794H138.19V60.4794H137.19V61.4794ZM137.19 78.0634H136.19V79.0634H137.19V78.0634ZM137.77 78.0634V79.0634H138.316L138.611 78.6037L137.77 78.0634ZM151.686 63.5669L151.153 62.7206L151.143 62.7273L151.686 63.5669ZM197.611 68.3217L198.385 67.6876L198.379 67.6813L198.374 67.6751L197.611 68.3217ZM206.077 162.144H205.077V163.144H206.077V162.144ZM221.27 162.144H222.27V161.144H221.27V162.144ZM221.27 166.898V167.898H222.27V166.898H221.27ZM162.936 166.898H161.936V167.898H162.936V166.898ZM162.936 162.144V161.144H161.936V162.144H162.936ZM177.2 162.144V163.144H178.2V162.144H177.2ZM176.504 82.8183L175.51 82.9241L175.511 82.9345L175.512 82.9449L176.504 82.8183ZM174.069 74.0044L173.19 74.4812L173.193 74.4875L174.069 74.0044ZM146.004 76.4398L146.783 77.0661L146.791 77.0562L146.799 77.0462L146.004 76.4398ZM138.697 90.7044L137.722 90.4842L137.719 90.496L138.697 90.7044ZM137.19 162.144H136.19V163.144H137.19V162.144ZM151.454 162.144H152.454V161.144H151.454V162.144ZM311.96 89.8926V90.8926H312.96V89.8926H311.96ZM306.278 89.8926L305.317 90.1705L305.526 90.8926H306.278V89.8926ZM292.013 68.5537L291.42 69.3591L291.431 69.3668L292.013 68.5537ZM256.409 68.0898L255.724 67.362L255.713 67.3722L255.702 67.3827L256.409 68.0898ZM252.582 73.7725L253.504 74.1605L253.519 74.1251L253.531 74.0887L252.582 73.7725ZM260.7 92.0961L261.118 91.1874L261.11 91.1838L260.7 92.0961ZM274.501 95.4593L274.356 96.4488L274.358 96.449L274.501 95.4593ZM292.477 99.1704L292.209 100.134L292.221 100.137L292.477 99.1704ZM307.785 106.013L307.221 106.838L307.228 106.843L307.236 106.848L307.785 106.013ZM315.324 112.739L314.55 113.372L314.554 113.378L314.559 113.384L315.324 112.739ZM309.873 162.607L310.462 163.415L310.464 163.414L309.873 162.607ZM261.396 167.826L261.132 168.791L261.141 168.793L261.149 168.795L261.396 167.826ZM243.768 170.726V171.726H244.722L244.767 170.773L243.768 170.726ZM238.086 170.726H237.086V171.726H238.086V170.726ZM238.086 130.135V129.135H237.086V130.135H238.086ZM243.768 130.135L244.754 129.963L244.609 129.135H243.768V130.135ZM250.611 147.183L249.781 147.741L249.785 147.746L250.611 147.183ZM263.948 159.824L264.472 158.973L264.471 158.972L263.948 159.824ZM302.219 160.984L302.835 161.772L302.852 161.758L302.868 161.744L302.219 160.984ZM297.232 131.759L296.793 132.657L296.799 132.66L297.232 131.759ZM262.324 122.713L261.978 123.651L261.983 123.653L262.324 122.713ZM254.09 118.886L253.572 119.741L253.581 119.747L253.591 119.752L254.09 118.886ZM246.204 112.855L245.518 113.583L245.523 113.588L245.529 113.593L246.204 112.855ZM239.709 103.114L238.778 103.479L238.782 103.486L238.785 103.494L239.709 103.114ZM245.508 68.3217L244.77 67.6474L244.764 67.6538L245.508 68.3217ZM286.33 59.7398L286.034 60.6948L286.045 60.6982L286.056 60.7013L286.33 59.7398ZM295.84 62.6391L295.598 63.6092L295.642 63.6204L295.688 63.6275L295.84 62.6391ZM298.624 62.871V63.871H298.65L298.677 63.8696L298.624 62.871ZM398.476 220.594V221.594H399.476V220.594H398.476ZM339.098 220.594H338.098V221.594H339.098V220.594ZM339.098 215.839V214.839H338.098V215.839H339.098ZM354.29 215.839V216.839H355.29V215.839H354.29ZM354.29 66.2342H355.29V65.2342H354.29V66.2342ZM339.098 66.2342H338.098V67.2342H339.098V66.2342ZM383.284 75.744H382.284V76.744H383.284V75.744ZM383.747 75.744V76.744H384.336L384.622 76.2296L383.747 75.744ZM396.388 62.5231L395.874 61.6656L395.868 61.6689L396.388 62.5231ZM440.574 70.1773L441.326 69.518L441.321 69.5129L440.574 70.1773ZM443.357 153.794L442.556 153.195L442.551 153.202L443.357 153.794ZM383.747 155.069L384.613 154.568L384.324 154.069H383.747V155.069ZM383.284 155.069V154.069H382.284V155.069H383.284ZM383.284 215.839H382.284V216.839H383.284V215.839ZM398.476 215.839H399.476V214.839H398.476V215.839ZM414.248 159.824L414.884 160.596L414.891 160.591L414.897 160.585L414.248 159.824ZM419.931 147.879L418.951 147.677L418.951 147.68L419.931 147.879ZM420.163 83.7461L421.151 83.594L421.151 83.5917L420.163 83.7461ZM396.852 68.6697L397.43 69.4861L397.434 69.4834L396.852 68.6697ZM388.502 78.9912L389.388 79.4546L389.391 79.4502L388.502 78.9912ZM388.966 151.474L389.832 150.974L389.827 150.965L388.966 151.474ZM471.655 61.4794V60.4794H470.655V61.4794H471.655ZM515.724 61.4794H516.724V60.4794H515.724V61.4794ZM515.724 162.144H514.724V163.144H515.724V162.144ZM531.033 162.144H532.033V161.144H531.033V162.144ZM531.033 166.898V167.898H532.033V166.898H531.033ZM471.655 166.898H470.655V167.898H471.655V166.898ZM471.655 162.144V161.144H470.655V162.144H471.655ZM486.847 162.144V163.144H487.847V162.144H486.847ZM486.847 66.2342H487.847V65.2342H486.847V66.2342ZM471.655 66.2342H470.655V67.2342H471.655V66.2342ZM488.935 33.6459L488.219 34.3449L488.227 34.3531L488.236 34.3611L488.935 33.6459ZM488.935 9.52364L488.227 8.81649L488.219 8.82471L488.935 9.52364ZM513.057 33.6459L513.756 34.3612L513.764 34.353L513.057 33.6459ZM604.559 166.898V167.898H605.559V166.898H604.559ZM545.181 166.898H544.181V167.898H545.181V166.898ZM545.181 162.144V161.144H544.181V162.144H545.181ZM560.374 162.144V163.144H561.374V162.144H560.374ZM560.374 66.2342H561.374V65.2342H560.374V66.2342ZM545.181 66.2342H544.181V67.2342H545.181V66.2342ZM545.181 61.4794V60.4794H544.181V61.4794H545.181ZM585.54 61.4794H586.54V60.4794H585.54V61.4794ZM585.54 83.7461H584.54V84.7461H585.54V83.7461ZM586.004 83.7461V84.7461H586.856L586.991 83.905L586.004 83.7461ZM594.238 66.2342L594.984 66.8993L594.989 66.8942L594.238 66.2342ZM626.826 63.5669L626.098 64.2522L626.108 64.2633L626.119 64.274L626.826 63.5669ZM628.913 94.1836L628.145 93.5434L628.141 93.5485L628.913 94.1836ZM607.343 95.9232L606.675 96.6675L606.681 96.6731L607.343 95.9232ZM607.111 74.4683L607.869 75.1205L607.898 75.0863L607.924 75.0495L607.111 74.4683ZM608.734 72.4968L608.027 71.7896L608.009 71.8082L607.991 71.8278L608.734 72.4968ZM610.358 70.7572L609.59 70.117L609.583 70.1247L609.577 70.1325L610.358 70.7572ZM610.474 65.0745L609.798 65.8117L609.816 65.8276L609.834 65.8427L610.474 65.0745ZM600.732 66.3502L600.1 65.575L600.093 65.5808L600.086 65.5868L600.732 66.3502ZM595.281 73.0766L594.418 72.5727L594.413 72.5805L595.281 73.0766ZM589.251 162.144H588.251V163.144H589.251V162.144ZM604.559 162.144H605.559V161.144H604.559V162.144ZM643.062 61.4794V60.4794H642.062V61.4794H643.062ZM687.132 61.4794H688.132V60.4794H687.132V61.4794ZM687.132 162.144H686.132V163.144H687.132V162.144ZM702.44 162.144H703.44V161.144H702.44V162.144ZM702.44 166.898V167.898H703.44V166.898H702.44ZM643.062 166.898H642.062V167.898H643.062V166.898ZM643.062 162.144V161.144H642.062V162.144H643.062ZM658.255 162.144V163.144H659.255V162.144H658.255ZM658.255 66.2342H659.255V65.2342H658.255V66.2342ZM643.062 66.2342H642.062V67.2342H643.062V66.2342ZM660.342 33.6459L659.627 34.3449L659.635 34.3531L659.643 34.3611L660.342 33.6459ZM660.342 9.52364L659.635 8.81649L659.627 8.82471L660.342 9.52364ZM684.464 33.6459L685.163 34.3612L685.171 34.353L684.464 33.6459ZM774.923 166.898V167.898H775.923V166.898H774.923ZM716.589 166.898H715.589V167.898H716.589V166.898ZM716.589 162.144V161.144H715.589V162.144H716.589ZM731.781 162.144V163.144H732.781V162.144H731.781ZM731.781 66.2342H732.781V65.2342H731.781V66.2342ZM716.589 66.2342H715.589V67.2342H716.589V66.2342ZM716.589 61.4794V60.4794H715.589V61.4794H716.589ZM760.658 61.4794H761.658V60.4794H760.658V61.4794ZM760.658 78.0634H759.658V79.0634H760.658V78.0634ZM761.238 78.0634V79.0634H761.785L762.08 78.6037L761.238 78.0634ZM775.155 63.5669L774.622 62.7206L774.612 62.7273L775.155 63.5669ZM821.08 68.3217L821.853 67.6876L821.848 67.6813L821.843 67.6751L821.08 68.3217ZM829.546 162.144H828.546V163.144H829.546V162.144ZM844.738 162.144H845.738V161.144H844.738V162.144ZM844.738 166.898V167.898H845.738V166.898H844.738ZM786.404 166.898H785.404V167.898H786.404V166.898ZM786.404 162.144V161.144H785.404V162.144H786.404ZM800.669 162.144V163.144H801.669V162.144H800.669ZM799.973 82.8183L798.979 82.9241L798.98 82.9345L798.981 82.9449L799.973 82.8183ZM797.538 74.0044L796.659 74.4812L796.662 74.4875L797.538 74.0044ZM769.472 76.4398L770.252 77.0661L770.26 77.0562L770.267 77.0462L769.472 76.4398ZM762.166 90.7044L761.19 90.4842L761.188 90.496L762.166 90.7044ZM760.658 162.144H759.658V163.144H760.658V162.144ZM774.923 162.144H775.923V161.144H774.923V162.144ZM891.475 131.063L891.562 132.059L892.475 131.98V131.063H891.475ZM891.475 130.599H892.475V129.958L891.893 129.69L891.475 130.599ZM876.979 119.35L876.199 119.976L876.202 119.979L876.979 119.35ZM882.43 67.394L883.06 68.1701L883.065 68.1659L882.43 67.394ZM936.125 63.103L935.666 63.9915L936.599 64.4732L937.035 63.5183L936.125 63.103ZM943.547 52.4335L942.82 51.7469L942.817 51.7506L943.547 52.4335ZM974.628 47.9106L973.972 48.6656L973.979 48.6715L973.986 48.6773L974.628 47.9106ZM977.179 67.6259L977.96 68.2507L977.969 68.2398L977.179 67.6259ZM959.667 68.5537L958.96 69.2608L959.667 68.5537ZM958.044 55.4488L958.992 55.765L958.998 55.749L959.002 55.7329L958.044 55.4488ZM947.026 55.7967L946.274 55.1382L946.261 55.1523L946.25 55.1669L947.026 55.7967ZM940.648 65.7703L939.757 65.3159L939.321 66.1712L940.158 66.6419L940.648 65.7703ZM949.81 73.6565L949.012 74.2596L949.02 74.2705L949.029 74.2812L949.81 73.6565ZM954.912 83.2822L953.949 83.551L953.953 83.5645L953.957 83.5779L954.912 83.2822ZM956.768 91.0524L955.775 91.1715L955.777 91.191L955.781 91.2104L956.768 91.0524ZM943.315 127.004L942.703 126.213L942.696 126.218L943.315 127.004ZM884.401 137.905L884.839 138.804L884.848 138.8L884.401 137.905ZM887.648 151.474L887.472 152.458L887.486 152.461L887.5 152.463L887.648 151.474ZM916.41 153.098L916.398 154.098L916.399 154.098L916.41 153.098ZM932.878 153.562L932.814 154.56L932.825 154.56L932.835 154.561L932.878 153.562ZM945.983 155.301L945.789 156.282L945.792 156.283L945.983 155.301ZM959.203 159.824L959.694 158.953L959.687 158.949L959.203 159.824ZM957.812 212.476L957.343 211.592L957.335 211.597L957.812 212.476ZM880.11 216.071L879.77 217.011L879.77 217.011L880.11 216.071ZM868.745 180.235L868.15 179.431L868.145 179.435L868.745 180.235ZM887.416 173.509L887.492 174.506L888.416 174.436V173.509H887.416ZM887.416 173.045H888.416V172.243L887.633 172.069L887.416 173.045ZM873.384 166.666L872.747 167.438L872.754 167.443L872.761 167.449L873.384 166.666ZM875.819 135.586L876.315 136.454L876.322 136.45L876.329 136.446L875.819 135.586ZM927.079 122.017L927.995 122.418L928 122.407L928.004 122.397L927.079 122.017ZM927.079 71.6849L928.004 71.305L928 71.2945L927.995 71.2841L927.079 71.6849ZM899.594 71.6849L898.677 71.2841L898.673 71.2945L898.668 71.305L899.594 71.6849ZM899.594 122.017L898.668 122.397L898.673 122.407L898.677 122.418L899.594 122.017ZM883.357 210.388L882.867 211.26L882.879 211.266L882.89 211.272L883.357 210.388ZM945.867 211.548L946.199 212.491L946.201 212.49L945.867 211.548ZM958.508 203.778L957.746 203.13L957.741 203.136L957.736 203.141L958.508 203.778ZM954.912 183.019L955.417 182.155L955.416 182.155L954.912 183.019ZM877.443 183.714L876.824 182.928L876.818 182.934L877.443 183.714ZM339.098 62.987V61.987H338.098V62.987H339.098ZM383.284 40.7203L384.284 40.7203L383.284 40.7203ZM326.815 22.6618L327.016 23.6414L327.542 23.5336L327.743 23.0367L326.815 22.6618ZM331.38 22.1679L330.505 21.6824L329.665 23.1953L331.395 23.1678L331.38 22.1679ZM325.409 27.1482L326.383 27.3754L326.827 25.47L325.022 26.2259L325.409 27.1482ZM329.696 26.0055L329.571 25.0133L328.949 25.0912L328.748 25.6856L329.696 26.0055ZM0.921875 1.59375H78.3916V-0.40625H0.921875V1.59375ZM77.3916 0.59375V5.81252H79.3916V0.59375H77.3916ZM78.3916 4.81252H56.9366V6.81252H78.3916V4.81252ZM55.9366 5.81252V161.68H57.9366V5.81252H55.9366ZM56.9366 162.68H78.3916V160.68H56.9366V162.68ZM77.3916 161.68V166.898H79.3916V161.68H77.3916ZM78.3916 165.898H0.921875V167.898H78.3916V165.898ZM1.92188 166.898V161.68H-0.078125V166.898H1.92188ZM0.921875 162.68H22.2608V160.68H0.921875V162.68ZM23.2608 161.68V5.81252H21.2608V161.68H23.2608ZM22.2608 4.81252H0.921875V6.81252H22.2608V4.81252ZM1.92188 5.81252V0.59375H-0.078125V5.81252H1.92188ZM151.454 165.898H93.1201V167.898H151.454V165.898ZM94.1201 166.898V162.144H92.1201V166.898H94.1201ZM93.1201 163.144H108.312V161.144H93.1201V163.144ZM109.312 162.144V66.2342H107.312V162.144H109.312ZM108.312 65.2342H93.1201V67.2342H108.312V65.2342ZM94.1201 66.2342V61.4794H92.1201V66.2342H94.1201ZM93.1201 62.4794H137.19V60.4794H93.1201V62.4794ZM136.19 61.4794V78.0634H138.19V61.4794H136.19ZM137.19 79.0634H137.77V77.0634H137.19V79.0634ZM138.611 78.6037C142.569 72.4388 147.112 67.7177 152.229 64.4064L151.143 62.7273C145.746 66.2197 141.011 71.1631 136.928 77.5232L138.611 78.6037ZM152.219 64.4131C158.315 60.5751 165.125 58.6523 172.677 58.6523V56.6523C164.766 56.6523 157.583 58.6725 151.153 62.7206L152.219 64.4131ZM172.677 58.6523C183.02 58.6523 191.035 62.1115 196.849 68.9684L198.374 67.6751C192.126 60.306 183.519 56.6523 172.677 56.6523V58.6523ZM196.838 68.9559C202.274 75.5825 205.077 85.6727 205.077 99.4024H207.077C207.077 85.4533 204.237 74.823 198.385 67.6876L196.838 68.9559ZM205.077 99.4024V162.144H207.077V99.4024H205.077ZM206.077 163.144H221.27V161.144H206.077V163.144ZM220.27 162.144V166.898H222.27V162.144H220.27ZM221.27 165.898H162.936V167.898H221.27V165.898ZM163.936 166.898V162.144H161.936V166.898H163.936ZM162.936 163.144H177.2V161.144H162.936V163.144ZM178.2 162.144V99.4024H176.2V162.144H178.2ZM178.2 99.4024C178.2 91.9715 177.969 86.3912 177.496 82.6917L175.512 82.9449C175.968 86.513 176.2 91.9888 176.2 99.4024H178.2ZM177.499 82.7125C177.104 78.9985 176.267 75.9186 174.945 73.5213L173.193 74.4875C174.345 76.5745 175.132 79.3705 175.51 82.9241L177.499 82.7125ZM174.948 73.5276C173.643 71.1224 171.985 69.2689 169.954 68.0206C167.92 66.7708 165.569 66.162 162.936 66.162V68.162C165.251 68.162 167.229 68.6936 168.906 69.7246C170.586 70.7571 172.02 72.3249 173.19 74.4812L174.948 73.5276ZM162.936 66.162C155.993 66.162 150.075 69.4515 145.208 75.8335L146.799 77.0462C151.365 71.0578 156.735 68.162 162.936 68.162V66.162ZM145.224 75.8136C141.362 80.6216 138.845 85.5119 137.722 90.4842L139.673 90.9247C140.715 86.31 143.069 81.6905 146.783 77.0661L145.224 75.8136ZM137.719 90.496C136.695 95.3035 136.19 101.216 136.19 108.216H138.19C138.19 101.3 138.69 95.5378 139.675 90.9129L137.719 90.496ZM136.19 108.216V162.144H138.19V108.216H136.19ZM137.19 163.144H151.454V161.144H137.19V163.144ZM150.454 162.144V166.898H152.454V162.144H150.454ZM311.96 88.8926H306.278V90.8926H311.96V88.8926ZM307.238 89.6148C304.481 80.0807 299.611 72.763 292.595 67.7406L291.431 69.3668C298.023 74.0861 302.663 80.9943 305.317 90.1705L307.238 89.6148ZM292.606 67.7483C286.854 63.5147 280.149 61.4071 272.53 61.4071V63.4071C279.755 63.4071 286.038 65.3973 291.42 69.359L292.606 67.7483ZM272.53 61.4071C265.607 61.4071 259.968 63.3623 255.724 67.362L257.095 68.8176C260.891 65.2404 266 63.4071 272.53 63.4071V61.4071ZM255.702 67.3827C253.701 69.3843 252.317 71.4068 251.634 73.4562L253.531 74.0887C254.085 72.427 255.252 70.661 257.117 68.7969L255.702 67.3827ZM251.661 73.3844C250.976 75.0117 250.655 76.9699 250.655 79.2232H252.655C252.655 77.1468 252.952 75.4711 253.504 74.1605L251.661 73.3844ZM250.655 79.2232C250.655 82.3411 251.458 85.0895 253.098 87.4233C254.733 89.7497 257.154 91.6008 260.291 93.0085L261.11 91.1838C258.217 89.8855 256.115 88.238 254.734 86.2734C253.359 84.3163 252.655 81.9812 252.655 79.2232H250.655ZM260.283 93.0048C263.28 94.3818 267.999 95.5184 274.356 96.4488L274.646 94.4699C268.324 93.5447 263.842 92.4392 261.118 91.1874L260.283 93.0048ZM274.358 96.449C280.738 97.3715 286.688 98.6003 292.209 100.134L292.745 98.2069C287.132 96.648 281.098 95.4028 274.644 94.4696L274.358 96.449ZM292.221 100.137C294.814 100.824 297.249 101.623 299.528 102.534L300.271 100.677C297.91 99.7333 295.397 98.9091 292.733 98.2037L292.221 100.137ZM299.528 102.534C301.757 103.426 304.32 104.853 307.221 106.838L308.35 105.188C305.375 103.152 302.68 101.641 300.271 100.677L299.528 102.534ZM307.236 106.848C310.095 108.729 312.53 110.905 314.55 113.372L316.098 112.106C313.942 109.471 311.352 107.162 308.335 105.177L307.236 106.848ZM314.559 113.384C316.551 115.745 318.278 118.88 319.719 122.824L321.598 122.138C320.101 118.041 318.271 114.682 316.088 112.094L314.559 113.384ZM319.719 122.824C321.143 126.72 321.862 131.048 321.862 135.818H323.862C323.862 130.846 323.112 126.282 321.598 122.138L319.719 122.824ZM321.862 135.818C321.862 147.046 317.663 155.665 309.282 161.801L310.464 163.414C319.401 156.871 323.862 147.629 323.862 135.818H321.862ZM309.284 161.799C302.062 167.066 293.155 169.726 282.503 169.726V171.726C293.5 171.726 302.84 168.973 310.462 163.415L309.284 161.799ZM282.503 169.726C276.107 169.726 269.155 168.774 261.644 166.857L261.149 168.795C268.791 170.745 275.911 171.726 282.503 171.726V169.726ZM261.661 166.862C258.831 166.087 256.533 165.502 254.771 165.11C253.042 164.726 251.741 164.507 250.959 164.507V166.507C251.491 166.507 252.587 166.674 254.337 167.063C256.054 167.444 258.317 168.019 261.132 168.791L261.661 166.862ZM250.959 164.507C248.86 164.507 246.998 165.013 245.417 166.066L246.527 167.73C247.73 166.928 249.192 166.507 250.959 166.507V164.507ZM245.417 166.066C243.77 167.164 242.863 168.726 242.77 170.678L244.767 170.773C244.829 169.477 245.39 168.488 246.527 167.73L245.417 166.066ZM243.768 169.726H238.086V171.726H243.768V169.726ZM239.086 170.726V130.135H237.086V170.726H239.086ZM238.086 131.135H243.768V129.135H238.086V131.135ZM242.783 130.308C243.89 136.63 246.223 142.444 249.781 147.741L251.441 146.626C248.04 141.562 245.812 136.011 244.754 129.963L242.783 130.308ZM249.785 147.746C253.346 152.969 257.896 157.28 263.424 160.676L264.471 158.972C259.176 155.719 254.835 151.603 251.437 146.62L249.785 147.746ZM263.423 160.675C270.23 164.87 277.64 166.971 285.635 166.971V164.971C278.011 164.971 270.964 162.973 264.472 158.973L263.423 160.675ZM285.635 166.971C292.602 166.971 298.365 165.266 302.835 161.772L301.603 160.196C297.568 163.351 292.274 164.971 285.635 164.971V166.971ZM302.868 161.744C307.311 157.948 309.597 153.392 309.597 148.111H307.597C307.597 152.726 305.631 156.752 301.569 160.224L302.868 161.744ZM309.597 148.111C309.597 144.293 308.599 140.91 306.577 138.001C304.561 135.101 301.568 132.729 297.664 130.857L296.799 132.66C300.473 134.422 303.162 136.593 304.935 139.143C306.701 141.685 307.597 144.661 307.597 148.111H309.597ZM297.671 130.86C294.209 129.17 288.988 127.799 282.079 126.712L281.768 128.688C288.621 129.766 293.605 131.1 296.793 132.657L297.671 130.86ZM282.079 126.712C275.257 125.639 268.787 123.992 262.665 121.773L261.983 123.653C268.232 125.918 274.828 127.596 281.768 128.688L282.079 126.712ZM262.67 121.775C259.782 120.71 257.088 119.458 254.589 118.019L253.591 119.752C256.194 121.251 258.991 122.551 261.978 123.651L262.67 121.775ZM254.608 118.031C252.124 116.525 249.547 114.557 246.879 112.117L245.529 113.593C248.273 116.102 250.954 118.154 253.572 119.741L254.608 118.031ZM246.89 112.128C244.301 109.687 242.212 106.564 240.634 102.733L238.785 103.494C240.455 107.549 242.695 110.921 245.518 113.583L246.89 112.128ZM240.64 102.748C239.146 98.9378 238.39 94.6571 238.39 89.8926H236.39C236.39 94.8699 237.18 99.4031 238.778 103.479L240.64 102.748ZM238.39 89.8926C238.39 81.7809 241.01 74.8307 246.252 68.9896L244.764 67.6538C239.182 73.874 236.39 81.3043 236.39 89.8926H238.39ZM246.247 68.996C252.515 62.131 261.231 58.6523 272.53 58.6523V56.6523C260.789 56.6523 251.49 60.2865 244.77 67.6475L246.247 68.996ZM272.53 58.6523C277.146 58.6523 281.646 59.3331 286.034 60.6948L286.627 58.7847C282.046 57.3631 277.346 56.6523 272.53 56.6523V58.6523ZM286.056 60.7013C287.121 61.0056 288.344 61.3876 289.725 61.8482L290.358 59.9508C288.956 59.4836 287.705 59.0925 286.605 58.7782L286.056 60.7013ZM289.725 61.8482C291.12 62.3131 292.214 62.6648 293.001 62.9011L293.576 60.9854C292.817 60.7578 291.746 60.4136 290.358 59.9508L289.725 61.8482ZM293.001 62.9011C293.792 63.1382 294.657 63.3742 295.598 63.6092L296.083 61.6689C295.167 61.4401 294.332 61.2122 293.576 60.9854L293.001 62.9011ZM295.688 63.6275C296.734 63.7884 297.713 63.871 298.624 63.871V61.871C297.833 61.871 296.956 61.799 295.992 61.6507L295.688 63.6275ZM398.476 219.594H339.098V221.594H398.476V219.594ZM340.098 220.594V215.839H338.098V220.594H340.098ZM339.098 216.839H354.29V214.839H339.098V216.839ZM355.29 215.839V66.2342H353.29V215.839H355.29ZM354.29 65.2342H339.098V67.2342H354.29V65.2342ZM383.284 76.744H383.747V74.744H383.284V76.744ZM384.622 76.2296C387.632 70.8113 391.725 66.5326 396.908 63.3773L395.868 61.6689C390.383 65.0081 386.048 69.5433 382.873 75.2583L384.622 76.2296ZM396.903 63.3806C402.165 60.2234 407.748 58.6523 413.668 58.6523V56.6523C407.373 56.6523 401.436 58.3284 395.874 61.6656L396.903 63.3806ZM413.668 58.6523C423.878 58.6523 432.581 62.69 439.827 70.8417L441.321 69.5129C433.723 60.9645 424.488 56.6523 413.668 56.6523V58.6523ZM439.822 70.8366C448.974 81.2743 453.607 95.5883 453.607 113.899H455.607C455.607 95.253 450.884 80.4193 441.326 69.518L439.822 70.8366ZM453.607 113.899C453.607 130.297 449.891 143.365 442.556 153.196L444.159 154.392C451.823 144.12 455.607 130.591 455.607 113.899H453.607ZM442.551 153.202C434.439 164.27 424.363 169.726 412.277 169.726V171.726C425.086 171.726 435.73 165.893 444.164 154.385L442.551 153.202ZM412.277 169.726C406.71 169.726 401.451 168.486 396.488 166.004L395.593 167.793C400.835 170.414 406.401 171.726 412.277 171.726V169.726ZM396.488 166.004C391.574 163.547 387.615 159.748 384.613 154.568L382.882 155.571C386.065 161.06 390.302 165.147 395.593 167.793L396.488 166.004ZM383.747 154.069H383.284V156.069H383.747V154.069ZM382.284 155.069V215.839H384.284V155.069H382.284ZM383.284 216.839H398.476V214.839H383.284V216.839ZM397.476 215.839V220.594H399.476V215.839H397.476ZM396.444 161.14C399.585 163.072 402.74 164.071 405.898 164.071V162.071C403.18 162.071 400.383 161.215 397.492 159.436L396.444 161.14ZM405.898 164.071C409.104 164.071 412.106 162.884 414.884 160.596L413.612 159.052C411.133 161.094 408.568 162.071 405.898 162.071V164.071ZM414.897 160.585C417.778 158.127 419.735 153.881 420.911 148.078L418.951 147.68C417.808 153.32 415.975 157.037 413.599 159.063L414.897 160.585ZM420.91 148.081C422.477 140.48 423.25 129.381 423.25 114.827H421.25C421.25 129.343 420.477 140.279 418.951 147.677L420.91 148.081ZM423.25 114.827C423.25 103.114 422.552 92.7017 421.151 83.594L419.174 83.8982C420.557 92.8822 421.25 103.19 421.25 114.827H423.25ZM421.151 83.5917C420.174 77.3375 418.525 72.5174 416.128 69.2391C413.695 65.9122 410.497 64.1905 406.594 64.1905V66.1905C409.804 66.1905 412.424 67.5614 414.514 70.4197C416.639 73.3266 418.219 77.7843 419.175 83.9005L421.151 83.5917ZM406.594 64.1905C403.095 64.1905 399.649 65.4435 396.271 67.8559L397.434 69.4834C400.551 67.2569 403.599 66.1905 406.594 66.1905V64.1905ZM396.275 67.8532C392.937 70.2142 390.06 73.7979 387.614 78.5322L389.391 79.4502C391.738 74.9068 394.428 71.6094 397.43 69.4861L396.275 67.8532ZM387.616 78.5278C383.103 87.1587 380.892 99.1336 380.892 114.363H382.892C382.892 99.2846 385.088 87.6785 389.388 79.4546L387.616 78.5278ZM380.892 114.363C380.892 131.195 383.251 143.786 388.106 151.984L389.827 150.965C385.249 143.236 382.892 131.086 382.892 114.363H380.892ZM388.1 151.974C390.477 156.095 393.25 159.174 396.444 161.14L397.492 159.436C394.656 157.691 392.094 154.894 389.832 150.974L388.1 151.974ZM471.655 62.4794H515.724V60.4794H471.655V62.4794ZM514.724 61.4794V162.144H516.724V61.4794H514.724ZM515.724 163.144H531.033V161.144H515.724V163.144ZM530.033 162.144V166.898H532.033V162.144H530.033ZM531.033 165.898H471.655V167.898H531.033V165.898ZM472.655 166.898V162.144H470.655V166.898H472.655ZM471.655 163.144H486.847V161.144H471.655V163.144ZM487.847 162.144V66.2342H485.847V162.144H487.847ZM486.847 65.2342H471.655V67.2342H486.847V65.2342ZM472.655 66.2342V61.4794H470.655V66.2342H472.655ZM489.65 32.947C486.503 29.7267 484.948 25.9552 484.948 21.5848H482.948C482.948 26.4922 484.717 30.7615 488.219 34.3449L489.65 32.947ZM484.948 21.5848C484.948 17.2144 486.503 13.4429 489.65 10.2226L488.219 8.82471C484.717 12.4081 482.948 16.6773 482.948 21.5848H484.948ZM489.642 10.2307C492.864 7.00865 496.633 5.42085 500.996 5.42085V3.42085C496.081 3.42085 491.809 5.2349 488.227 8.81653L489.642 10.2307ZM500.996 5.42085C505.359 5.42085 509.128 7.00865 512.35 10.2307L513.764 8.81653C510.182 5.2349 505.911 3.42085 500.996 3.42085V5.42085ZM512.35 10.2307C515.572 13.4528 517.16 17.2219 517.16 21.5848H519.16C519.16 16.6699 517.346 12.3982 513.764 8.81653L512.35 10.2307ZM517.16 21.5848C517.16 25.9477 515.572 29.7167 512.35 32.9388L513.764 34.353C517.346 30.7714 519.16 26.4997 519.16 21.5848H517.16ZM512.358 32.9307C509.138 36.0779 505.366 37.6328 500.996 37.6328V39.6328C505.903 39.6328 510.172 37.8631 513.756 34.3611L512.358 32.9307ZM500.996 37.6328C496.625 37.6328 492.854 36.0779 489.633 32.9307L488.236 34.3611C491.819 37.8631 496.088 39.6328 500.996 39.6328V37.6328ZM604.559 165.898H545.181V167.898H604.559V165.898ZM546.181 166.898V162.144H544.181V166.898H546.181ZM545.181 163.144H560.374V161.144H545.181V163.144ZM561.374 162.144V66.2342H559.374V162.144H561.374ZM560.374 65.2342H545.181V67.2342H560.374V65.2342ZM546.181 66.2342V61.4794H544.181V66.2342H546.181ZM545.181 62.4794H585.54V60.4794H545.181V62.4794ZM584.54 61.4794V83.7461H586.54V61.4794H584.54ZM585.54 84.7461H586.004V82.7461H585.54V84.7461ZM586.991 83.905C588.044 77.3612 590.708 71.7009 594.984 66.8993L593.491 65.5691C588.953 70.6639 586.128 76.6782 585.016 83.5872L586.991 83.905ZM594.989 66.8942C599.842 61.3689 605.607 58.6523 612.329 58.6523V56.6523C604.98 56.6523 598.684 59.6569 593.486 65.5743L594.989 66.8942ZM612.329 58.6523C618.037 58.6523 622.596 60.5311 626.098 64.2522L627.554 62.8815C623.634 58.7165 618.528 56.6523 612.329 56.6523V58.6523ZM626.119 64.274C629.975 68.1298 631.973 73.7175 631.973 81.1947H633.973C633.973 73.3635 631.873 67.1993 627.533 62.8598L626.119 64.274ZM631.973 81.1947C631.973 86.4397 630.664 90.5214 628.145 93.5434L629.682 94.8238C632.575 91.3514 633.973 86.7738 633.973 81.1947H631.973ZM628.141 93.5485C625.473 96.7933 622.047 98.4024 617.78 98.4024V100.402C622.636 100.402 626.632 98.5323 629.686 94.8187L628.141 93.5485ZM617.78 98.4024C613.635 98.4024 610.41 97.2961 608.004 95.1734L606.681 96.6731C609.533 99.1892 613.266 100.402 617.78 100.402V98.4024ZM608.01 95.179C605.218 92.673 603.82 89.47 603.82 85.4857H601.82C601.82 90.006 603.436 93.7614 606.675 96.6675L608.01 95.179ZM603.82 85.4857C603.82 81.7271 605.149 78.2814 607.869 75.1205L606.353 73.816C603.351 77.3043 601.82 81.2035 601.82 85.4857H603.82ZM607.924 75.0495C608.281 74.5508 608.795 73.9246 609.478 73.1657L607.991 71.8278C607.282 72.6152 606.714 73.3033 606.297 73.887L607.924 75.0495ZM609.441 73.2039C610.217 72.428 610.792 71.8149 611.139 71.3819L609.577 70.1325C609.305 70.4726 608.798 71.0192 608.027 71.7896L609.441 73.2039ZM611.126 71.3973C611.569 70.8664 611.957 70.2585 612.296 69.5808L610.507 68.6863C610.228 69.2456 609.92 69.7202 609.59 70.117L611.126 71.3973ZM612.296 69.5808C612.656 68.8608 612.865 68.1274 612.865 67.394H610.865C610.865 67.7429 610.766 68.1693 610.507 68.6863L612.296 69.5808ZM612.865 67.394C612.865 66.19 612.142 65.1625 611.114 64.3063L609.834 65.8427C610.662 66.5328 610.865 67.0516 610.865 67.394H612.865ZM611.15 64.3374C610.007 63.29 608.553 62.7988 606.879 62.7988V64.7988C608.142 64.7988 609.085 65.1581 609.798 65.8117L611.15 64.3374ZM606.879 62.7988C604.571 62.7988 602.306 63.7781 600.1 65.575L601.364 67.1254C603.334 65.5204 605.166 64.7988 606.879 64.7988V62.7988ZM600.086 65.5868C597.972 67.3756 596.086 69.7124 594.418 72.5727L596.145 73.5805C597.724 70.8742 599.472 68.7267 601.378 67.1136L600.086 65.5868ZM594.413 72.5805C590.27 79.8316 588.251 90.0051 588.251 102.998H590.251C590.251 90.1667 592.252 80.393 596.15 73.5728L594.413 72.5805ZM588.251 102.998V162.144H590.251V102.998H588.251ZM589.251 163.144H604.559V161.144H589.251V163.144ZM603.559 162.144V166.898H605.559V162.144H603.559ZM643.062 62.4794H687.132V60.4794H643.062V62.4794ZM686.132 61.4794V162.144H688.132V61.4794H686.132ZM687.132 163.144H702.44V161.144H687.132V163.144ZM701.44 162.144V166.898H703.44V162.144H701.44ZM702.44 165.898H643.062V167.898H702.44V165.898ZM644.062 166.898V162.144H642.062V166.898H644.062ZM643.062 163.144H658.255V161.144H643.062V163.144ZM659.255 162.144V66.2342H657.255V162.144H659.255ZM658.255 65.2342H643.062V67.2342H658.255V65.2342ZM644.062 66.2342V61.4794H642.062V66.2342H644.062ZM661.057 32.947C657.91 29.7267 656.355 25.9552 656.355 21.5848H654.355C654.355 26.4922 656.125 30.7615 659.627 34.3449L661.057 32.947ZM656.355 21.5848C656.355 17.2144 657.91 13.4429 661.057 10.2226L659.627 8.82471C656.125 12.4081 654.355 16.6773 654.355 21.5848H656.355ZM661.049 10.2307C664.271 7.00865 668.04 5.42085 672.403 5.42085V3.42085C667.488 3.42085 663.217 5.2349 659.635 8.81653L661.049 10.2307ZM672.403 5.42085C676.766 5.42085 680.535 7.00865 683.757 10.2307L685.171 8.81653C681.59 5.2349 677.318 3.42085 672.403 3.42085V5.42085ZM683.757 10.2307C686.979 13.4528 688.567 17.2219 688.567 21.5848H690.567C690.567 16.6699 688.753 12.3982 685.171 8.81653L683.757 10.2307ZM688.567 21.5848C688.567 25.9477 686.979 29.7167 683.757 32.9388L685.171 34.353C688.753 30.7714 690.567 26.4997 690.567 21.5848H688.567ZM683.765 32.9307C680.545 36.0779 676.774 37.6328 672.403 37.6328V39.6328C677.311 39.6328 681.58 37.8631 685.163 34.3611L683.765 32.9307ZM672.403 37.6328C668.033 37.6328 664.261 36.0779 661.041 32.9307L659.643 34.3611C663.227 37.8631 667.496 39.6328 672.403 39.6328V37.6328ZM774.923 165.898H716.589V167.898H774.923V165.898ZM717.589 166.898V162.144H715.589V166.898H717.589ZM716.589 163.144H731.781V161.144H716.589V163.144ZM732.781 162.144V66.2342H730.781V162.144H732.781ZM731.781 65.2342H716.589V67.2342H731.781V65.2342ZM717.589 66.2342V61.4794H715.589V66.2342H717.589ZM716.589 62.4794H760.658V60.4794H716.589V62.4794ZM759.658 61.4794V78.0634H761.658V61.4794H759.658ZM760.658 79.0634H761.238V77.0634H760.658V79.0634ZM762.08 78.6037C766.037 72.4388 770.581 67.7177 775.698 64.4064L774.612 62.7273C769.214 66.2197 764.48 71.1631 760.397 77.5232L762.08 78.6037ZM775.688 64.4131C781.783 60.5751 788.594 58.6523 796.146 58.6523V56.6523C788.235 56.6523 781.052 58.6725 774.622 62.7206L775.688 64.4131ZM796.146 58.6523C806.489 58.6523 814.504 62.1115 820.317 68.9684L821.843 67.6751C815.595 60.306 806.987 56.6523 796.146 56.6523V58.6523ZM820.307 68.9559C825.742 75.5825 828.546 85.6727 828.546 99.4024H830.546C830.546 85.4533 827.706 74.823 821.853 67.6876L820.307 68.9559ZM828.546 99.4024V162.144H830.546V99.4024H828.546ZM829.546 163.144H844.738V161.144H829.546V163.144ZM843.738 162.144V166.898H845.738V162.144H843.738ZM844.738 165.898H786.404V167.898H844.738V165.898ZM787.404 166.898V162.144H785.404V166.898H787.404ZM786.404 163.144H800.669V161.144H786.404V163.144ZM801.669 162.144V99.4024H799.669V162.144H801.669ZM801.669 99.4024C801.669 91.9715 801.437 86.3912 800.965 82.6917L798.981 82.9449C799.437 86.513 799.669 91.9888 799.669 99.4024H801.669ZM800.967 82.7125C800.572 78.9985 799.736 75.9186 798.413 73.5213L796.662 74.4875C797.813 76.5745 798.601 79.3705 798.979 82.9241L800.967 82.7125ZM798.417 73.5276C797.112 71.1224 795.453 69.2689 793.422 68.0206C791.389 66.7708 789.037 66.162 786.404 66.162V68.162C788.719 68.162 790.698 68.6936 792.375 69.7246C794.055 70.7571 795.489 72.3249 796.659 74.4812L798.417 73.5276ZM786.404 66.162C779.461 66.162 773.543 69.4515 768.677 75.8335L770.267 77.0462C774.834 71.0578 780.204 68.162 786.404 68.162V66.162ZM768.693 75.8136C764.83 80.6216 762.313 85.5119 761.191 90.4842L763.141 90.9247C764.183 86.31 766.537 81.6905 770.252 77.0661L768.693 75.8136ZM761.188 90.496C760.163 95.3035 759.658 101.216 759.658 108.216H761.658C761.658 101.3 762.158 95.5378 763.144 90.9129L761.188 90.496ZM759.658 108.216V162.144H761.658V108.216H759.658ZM760.658 163.144H774.923V161.144H760.658V163.144ZM773.923 162.144V166.898H775.923V162.144H773.923ZM892.475 131.063V130.599H890.475V131.063H892.475ZM891.893 129.69C886.311 127.126 881.602 123.471 877.756 118.72L876.202 119.979C880.242 124.97 885.197 128.815 891.058 131.508L891.893 129.69ZM877.759 118.724C872.891 112.658 870.441 105.309 870.441 96.6191H868.441C868.441 105.712 871.016 113.516 876.199 119.976L877.759 118.724ZM870.441 96.6191C870.441 84.433 874.664 74.9923 883.06 68.1701L881.799 66.6178C872.877 73.867 868.441 83.9097 868.441 96.6191H870.441ZM883.065 68.1659C890.731 61.8526 900.81 58.6523 913.394 58.6523V56.6523C900.465 56.6523 889.9 59.9464 881.794 66.622L883.065 68.1659ZM913.394 58.6523C921.357 58.6523 928.776 60.4328 935.666 63.9915L936.584 62.2145C929.403 58.5055 921.668 56.6523 913.394 56.6523V58.6523ZM937.035 63.5183C938.604 60.0808 941.01 56.6125 944.278 53.1164L942.817 51.7506C939.436 55.3675 936.893 59.0122 935.215 62.6877L937.035 63.5183ZM944.274 53.1201C949.345 47.7511 955.5 45.0835 962.799 45.0835V43.0835C954.943 43.0835 948.264 45.9826 942.82 51.7469L944.274 53.1201ZM962.799 45.0835C967.573 45.0835 971.261 46.3113 973.972 48.6656L975.283 47.1555C972.118 44.407 967.92 43.0835 962.799 43.0835V45.0835ZM973.986 48.6773C977.042 51.2363 978.615 54.8749 978.615 59.7398H980.615C980.615 54.3991 978.862 50.1515 975.27 47.1438L973.986 48.6773ZM978.615 59.7398C978.615 62.733 977.851 65.1329 976.39 67.012L977.969 68.2398C979.754 65.9439 980.615 63.0864 980.615 59.7398H978.615ZM976.398 67.0012C974.451 69.4354 971.704 70.6849 968.017 70.6849V72.6849C972.217 72.6849 975.578 71.2285 977.96 68.2506L976.398 67.0012ZM968.017 70.6849C964.752 70.6849 962.241 69.7133 960.374 67.8466L958.96 69.2608C961.268 71.569 964.324 72.6849 968.017 72.6849V70.6849ZM960.374 67.8466C958.654 66.1265 957.768 63.8808 957.768 61.0155H955.768C955.768 64.3353 956.815 67.1151 958.96 69.2608L960.374 67.8466ZM957.768 61.0155C957.768 60.0329 958.143 58.3133 958.992 55.765L957.095 55.1326C956.243 57.6871 955.768 59.6786 955.768 61.0155H957.768ZM959.002 55.7329C959.312 54.6883 959.545 53.8921 959.701 53.3461C959.779 53.0738 959.839 52.8593 959.88 52.7057C959.9 52.6297 959.917 52.562 959.93 52.5067C959.937 52.4798 959.944 52.4476 959.95 52.4149C959.951 52.4099 959.971 52.3136 959.971 52.2016H957.971C957.971 52.1353 957.979 52.0855 957.98 52.0751C957.982 52.0569 957.985 52.0443 957.986 52.0407C957.987 52.0334 957.987 52.0345 957.984 52.0486C957.977 52.0755 957.966 52.1213 957.947 52.1903C957.911 52.3267 957.855 52.5277 957.778 52.7966C957.625 53.333 957.394 54.1218 957.085 55.1647L959.002 55.7329ZM959.971 52.2016C959.971 51.2949 959.649 50.4728 958.899 49.9187C958.206 49.4065 957.287 49.23 956.304 49.23V51.23C957.099 51.23 957.514 51.3822 957.71 51.5271C957.85 51.6302 957.971 51.7939 957.971 52.2016H959.971ZM956.304 49.23C952.932 49.23 949.587 51.3518 946.274 55.1382L947.779 56.4552C950.96 52.8194 953.801 51.23 956.304 51.23V49.23ZM946.25 55.1669C943.88 58.0894 941.717 61.4745 939.757 65.3159L941.539 66.2248C943.444 62.4893 945.534 59.2253 947.803 56.4265L946.25 55.1669ZM940.158 66.6419C943.758 68.6669 946.704 71.207 949.012 74.2596L950.607 73.0534C948.122 69.7661 944.96 67.0488 941.138 64.8988L940.158 66.6419ZM949.029 74.2812C951.431 77.284 953.063 80.3739 953.949 83.551L955.876 83.0134C954.907 79.5414 953.136 76.2141 950.591 73.0318L949.029 74.2812ZM953.957 83.5779C954.955 86.8033 955.554 89.3268 955.775 91.1715L957.761 90.9332C957.518 88.9122 956.88 86.2556 955.868 82.9865L953.957 83.5779ZM955.781 91.2104C956.083 93.1012 956.232 94.8259 956.232 96.3871H958.232C958.232 94.7011 958.071 92.8693 957.755 90.8944L955.781 91.2104ZM956.232 96.3871C956.232 109.343 951.703 119.238 942.703 126.213L943.928 127.794C953.483 120.389 958.232 109.873 958.232 96.3871H956.232ZM942.696 126.218C935.273 132.067 925.041 135.05 911.887 135.05V137.05C925.328 137.05 936.049 134.002 943.934 127.789L942.696 126.218ZM911.887 135.05C910.509 135.05 908.433 135.011 905.652 134.934L905.596 136.933C908.382 137.011 910.481 137.05 911.887 137.05V135.05ZM905.652 134.934C902.866 134.857 900.768 134.818 899.362 134.818V136.818C900.739 136.818 902.815 136.856 905.596 136.933L905.652 134.934ZM899.362 134.818C892.169 134.818 886.968 135.504 883.954 137.011L884.848 138.8C887.401 137.523 892.174 136.818 899.362 136.818V134.818ZM883.963 137.006C882.339 137.798 881.057 138.818 880.184 140.095C879.305 141.38 878.878 142.866 878.878 144.516H880.878C880.878 143.227 881.206 142.143 881.834 141.224C882.468 140.298 883.448 139.482 884.839 138.804L883.963 137.006ZM878.878 144.516C878.878 146.634 879.631 148.42 881.154 149.784C882.641 151.115 884.786 151.977 887.472 152.458L887.825 150.49C885.33 150.043 883.591 149.282 882.488 148.294C881.42 147.338 880.878 146.109 880.878 144.516H878.878ZM887.5 152.463C893.757 153.402 903.401 153.943 916.398 154.098L916.421 152.098C903.44 151.943 893.911 151.402 887.797 150.485L887.5 152.463ZM916.399 154.098C923.74 154.175 929.208 154.329 932.814 154.56L932.941 152.564C929.28 152.33 923.769 152.175 916.42 152.098L916.399 154.098ZM932.835 154.561C936.402 154.712 940.717 155.283 945.789 156.282L946.176 154.32C941.043 153.309 936.621 152.72 932.92 152.562L932.835 154.561ZM945.792 156.283C950.896 157.273 955.198 158.751 958.719 160.699L959.687 158.949C955.941 156.877 951.43 155.339 946.173 154.319L945.792 156.283ZM958.713 160.696C968.857 166.406 973.86 174.705 973.86 185.686H975.86C975.86 173.936 970.425 164.994 959.694 158.953L958.713 160.696ZM973.86 185.686C973.86 191.433 972.482 196.432 969.754 200.718C967.024 205.009 962.906 208.641 957.343 211.592L958.28 213.359C964.083 210.28 968.489 206.432 971.441 201.792C974.397 197.148 975.86 191.768 975.86 185.686H973.86ZM957.335 211.597C947.58 216.89 932.858 219.594 913.046 219.594V221.594C932.975 221.594 948.096 218.885 958.289 213.355L957.335 211.597ZM913.046 219.594C899.5 219.594 888.649 218.091 880.45 215.13L879.77 217.011C888.271 220.081 899.378 221.594 913.046 221.594V219.594ZM880.45 215.13C874.128 212.845 869.479 209.964 866.418 206.533C863.375 203.123 861.859 199.128 861.859 194.5H859.859C859.859 199.613 861.551 204.084 864.925 207.865C868.281 211.625 873.258 214.657 879.77 217.011L880.45 215.13ZM861.859 194.5C861.859 189.307 864.288 184.828 869.345 181.035L868.145 179.435C862.687 183.529 859.859 188.559 859.859 194.5H861.859ZM869.339 181.039C874.511 177.217 880.552 175.034 887.492 174.506L887.341 172.512C880.055 173.066 873.648 175.368 868.15 179.431L869.339 181.039ZM888.416 173.509V173.045H886.416V173.509H888.416ZM887.633 172.069C882.189 170.859 877.657 168.789 874.006 165.884L872.761 167.449C876.688 170.574 881.511 172.757 887.199 174.021L887.633 172.069ZM874.02 165.895C869.364 162.052 867.077 157.341 867.077 151.706H865.077C865.077 157.978 867.662 163.241 872.747 167.438L874.02 165.895ZM867.077 151.706C867.077 145.056 870.108 140.001 876.315 136.454L875.323 134.718C868.541 138.593 865.077 144.285 865.077 151.706H867.077ZM876.329 136.446C880.342 134.068 885.406 132.591 891.562 132.059L891.389 130.067C885.02 130.617 879.646 132.156 875.309 134.726L876.329 136.446ZM913.394 132.295C916.769 132.295 919.717 131.479 922.189 129.803C924.658 128.129 926.584 125.644 927.995 122.418L926.163 121.616C924.868 124.575 923.16 126.729 921.067 128.148C918.978 129.564 916.436 130.295 913.394 130.295V132.295ZM928.004 122.397C928.947 120.101 929.626 116.81 930.074 112.584C930.524 108.342 930.746 103.095 930.746 96.851H928.746C928.746 103.055 928.525 108.226 928.085 112.373C927.644 116.536 926.989 119.604 926.154 121.637L928.004 122.397ZM930.746 96.851C930.746 90.6068 930.524 85.3598 930.074 81.1183C929.626 76.8922 928.947 73.6013 928.004 71.305L926.154 72.0649C926.989 74.0983 927.644 77.1664 928.085 81.3291C928.525 85.4762 928.746 90.6475 928.746 96.851H930.746ZM927.995 71.2841C926.584 68.0576 924.658 65.5727 922.189 63.8989C919.717 62.2228 916.769 61.4071 913.394 61.4071V63.4071C916.436 63.4071 918.978 64.1378 921.067 65.5543C923.16 66.9731 924.868 69.1271 926.163 72.0858L927.995 71.2841ZM913.394 61.4071C909.983 61.4071 907.007 62.2215 904.515 63.8967C902.026 65.5701 900.09 68.0555 898.677 71.2841L900.51 72.0858C901.803 69.1292 903.52 66.9757 905.631 65.5565C907.74 64.1391 910.311 63.4071 913.394 63.4071V61.4071ZM898.668 71.305C897.725 73.6013 897.046 76.8922 896.599 81.1183C896.149 85.3598 895.926 90.6068 895.926 96.851H897.926C897.926 90.6475 898.148 85.4762 898.587 81.3291C899.029 77.1664 899.683 74.0983 900.519 72.0649L898.668 71.305ZM895.926 96.851C895.926 103.095 896.149 108.342 896.599 112.584C897.046 116.81 897.725 120.101 898.668 122.397L900.519 121.637C899.683 119.604 899.029 116.536 898.587 112.373C898.148 108.226 897.926 103.055 897.926 96.851H895.926ZM898.677 122.418C900.09 125.646 902.026 128.132 904.515 129.805C907.007 131.48 909.983 132.295 913.394 132.295V130.295C910.311 130.295 907.74 129.563 905.631 128.146C903.52 126.726 901.803 124.573 900.51 121.616L898.677 122.418ZM871.224 194.964C871.224 201.569 875.27 206.986 882.867 211.26L883.848 209.517C876.601 205.44 873.224 200.575 873.224 194.964H871.224ZM882.89 211.272C889.985 215.019 900.345 216.839 913.858 216.839V214.839C900.465 214.839 890.492 213.025 883.824 209.504L882.89 211.272ZM913.858 216.839C927.138 216.839 937.933 215.404 946.199 212.491L945.534 210.605C937.564 213.413 927.02 214.839 913.858 214.839V216.839ZM946.201 212.49C952.161 210.373 956.565 207.703 959.279 204.414L957.736 203.141C955.347 206.037 951.324 208.548 945.532 210.606L946.201 212.49ZM959.27 204.425C962.003 201.209 963.451 197.896 963.451 194.5H961.451C961.451 197.29 960.269 200.161 957.746 203.13L959.27 204.425ZM963.451 194.5C963.451 189.341 960.665 185.224 955.417 182.155L954.408 183.882C959.21 186.69 961.451 190.227 961.451 194.5H963.451ZM955.416 182.155C951.742 180.015 946.517 178.453 939.814 177.42C933.098 176.386 924.829 175.872 915.018 175.872V177.872C924.768 177.872 932.928 178.383 939.51 179.397C946.105 180.413 951.047 181.925 954.409 183.883L955.416 182.155ZM915.018 175.872C905.359 175.872 897.35 176.444 891.006 177.599C884.684 178.75 879.914 180.498 876.824 182.929L878.061 184.5C880.771 182.369 885.162 180.696 891.365 179.566C897.546 178.441 905.425 177.872 915.018 177.872V175.872ZM876.818 182.934C873.086 185.919 871.224 189.964 871.224 194.964H873.224C873.224 190.531 874.841 187.076 878.067 184.495L876.818 182.934ZM340.098 66.2342V62.987H338.098V66.2342H340.098ZM339.098 63.987C345.388 63.987 354.841 62.8627 362.76 59.4521C370.675 56.0438 377.325 50.2123 377.325 40.7203H375.325C375.325 49.0416 369.566 54.3435 361.969 57.6152C354.378 60.8846 345.217 61.987 339.098 61.987V63.987ZM377.325 40.7203C377.325 17.9131 362.277 10.0313 354.29 10.0313V12.0313C361.149 12.0313 375.325 18.9939 375.325 40.7203H377.325ZM327.081 37.0091C327.081 40.9343 328.311 43.975 330.25 46.0431C332.184 48.1062 334.771 49.1425 337.358 49.1425C339.946 49.1425 342.532 48.1062 344.466 46.0431C346.405 43.975 347.636 40.9343 347.636 37.0091H345.636C345.636 40.5062 344.548 43.0323 343.007 44.6752C341.462 46.3233 339.41 47.1425 337.358 47.1425C335.307 47.1425 333.254 46.3233 331.709 44.6752C330.169 43.0323 329.081 40.5062 329.081 37.0091H327.081ZM347.636 37.0091C347.636 32.673 345.487 29.5918 342.419 27.6386C339.392 25.7115 335.479 24.8758 331.792 24.8758V26.8758C335.219 26.8758 338.728 27.6596 341.345 29.3257C343.921 30.9656 345.636 33.4511 345.636 37.0091H347.636ZM310.96 53.4577V89.8926H312.96V53.4577H310.96ZM298.677 63.8696C300.089 63.7936 302.121 63.163 303.809 61.5461C305.526 59.9022 306.814 57.3094 306.814 53.4577H304.814C304.814 56.8271 303.705 58.8765 302.426 60.1017C301.118 61.354 299.555 61.8195 298.57 61.8725L298.677 63.8696ZM331.792 23.1647C339.06 23.1647 343.399 24.981 345.929 27.5107C348.459 30.0403 349.347 33.4522 349.347 37.0091H351.347C351.347 33.1439 350.38 29.1335 347.343 26.0964C344.306 23.0594 339.368 21.1647 331.792 21.1647V23.1647ZM349.347 37.0091C349.347 41.3999 347.818 44.6087 345.599 46.7225C343.366 48.8489 340.373 49.9259 337.358 49.9259C334.344 49.9259 331.351 48.8489 329.118 46.7225C326.899 44.6087 325.369 41.3999 325.369 37.0091H323.369C323.369 41.8962 325.087 45.6457 327.739 48.1708C330.377 50.6834 333.879 51.9259 337.358 51.9259C340.838 51.9259 344.34 50.6834 346.978 48.1708C349.629 45.6457 351.347 41.8962 351.347 37.0091H349.347ZM354.29 8.32016C370.647 8.32016 382.284 22.5565 382.284 40.7203L384.284 40.7203C384.284 21.7728 372.047 6.32016 354.29 6.32016V8.32016ZM384.284 75.744V40.7203H382.284V75.744H384.284ZM354.29 6.32016C348.231 6.32016 332.154 6.79561 325.888 22.2868L327.743 23.0367C333.468 8.88079 348.15 8.32016 354.29 8.32016V6.32016ZM332.254 22.6535C337.682 12.8803 348.809 12.0313 354.29 12.0313V10.0313C348.799 10.0313 336.533 10.8298 330.505 21.6824L332.254 22.6535ZM306.814 53.4577C306.814 38.031 314.985 26.1104 327.016 23.6414L326.614 21.6822C313.373 24.3995 304.814 37.3994 304.814 53.4577H306.814ZM331.395 23.1678C331.527 23.1657 331.659 23.1647 331.792 23.1647V21.1647C331.648 21.1647 331.506 21.1658 331.364 21.1681L331.395 23.1678ZM312.96 53.4577C312.96 40.2562 318.401 31.168 325.795 28.0706L325.022 26.2259C316.611 29.7491 310.96 39.7945 310.96 53.4577H312.96ZM325.369 37.0091C325.369 33.338 325.736 30.1478 326.383 27.3754L324.435 26.9211C323.749 29.8612 323.369 33.2055 323.369 37.0091H325.369ZM331.792 24.8758C331.041 24.8758 330.301 24.922 329.571 25.0133L329.82 26.9978C330.466 26.9169 331.124 26.8758 331.792 26.8758V24.8758ZM328.748 25.6856C327.688 28.8258 327.081 32.5636 327.081 37.0091H329.081C329.081 32.745 329.663 29.2277 330.643 26.3254L328.748 25.6856Z" fill="white" mask="url(#path-1-inside-1_2_2)"/>
</g>
</svg>
