<?xml version="1.0" standalone="no"?>
<!DOCTYPE svg PUBLIC "-//W3C//DTD SVG 20010904//EN"
 "http://www.w3.org/TR/2001/REC-SVG-20010904/DTD/svg10.dtd">
<svg version="1.0" xmlns="http://www.w3.org/2000/svg"
 width="512.000000pt" height="512.000000pt" viewBox="0 0 512.000000 512.000000"
 preserveAspectRatio="xMidYMid meet">
<metadata>
Created by potrace 1.14, written by Peter Selinger 2001-2017
</metadata>
<g transform="translate(0.000000,512.000000) scale(0.100000,-0.100000)"
fill="#000000" stroke="none">
<path d="M2225 4593 c-29 -8 -67 -34 -101 -71 -34 -35 -40 -87 -17 -128 12
-21 8 -34 -9 -34 -5 0 -6 5 -3 10 3 6 -1 10 -9 10 -9 0 -16 4 -16 8 0 9 -64
42 -81 42 -6 0 -7 -5 -4 -10 4 -6 10 -8 13 -6 4 2 19 -4 32 -15 l25 -19 -50 0
c-58 0 -162 -23 -177 -38 -6 -6 7 -4 28 3 76 27 78 14 4 -23 -41 -20 -90 -51
-109 -67 -77 -68 -141 -138 -141 -155 0 -6 -4 -10 -10 -10 -5 0 -12 -11 -16
-25 -3 -14 -10 -25 -14 -25 -5 0 -12 -10 -16 -22 -7 -26 -72 -121 -86 -126 -4
-2 -8 -10 -8 -18 0 -8 -4 -14 -9 -14 -5 0 -12 -8 -15 -17 -3 -10 -16 -29 -29
-43 -12 -14 -36 -43 -52 -65 -35 -47 -71 -90 -102 -122 -13 -13 -23 -28 -23
-32 0 -5 -7 -15 -16 -22 -24 -20 -13 -62 54 -201 32 -67 69 -152 82 -188 12
-36 26 -69 29 -75 4 -5 13 -30 20 -55 8 -25 19 -58 26 -74 11 -25 9 -36 -23
-105 -34 -71 -36 -83 -36 -171 1 -137 42 -260 124 -363 51 -65 68 -79 115 -91
28 -7 51 -18 51 -24 1 -7 2 -13 4 -14 1 -2 3 -12 5 -23 4 -22 13 -54 44 -155
11 -36 22 -77 25 -92 2 -14 9 -36 16 -47 6 -12 8 -21 4 -21 -4 0 1 -9 11 -20
10 -11 15 -20 12 -20 -7 0 36 -66 59 -90 49 -51 75 -90 85 -125 6 -22 15 -50
20 -63 13 -33 11 -40 -13 -48 -12 -3 -37 -13 -57 -22 -20 -9 -40 -15 -45 -13
-5 1 -12 -3 -16 -9 -4 -6 -19 -13 -35 -16 -15 -3 -38 -10 -49 -16 -12 -7 -28
-13 -36 -14 -8 -2 -23 -7 -35 -13 -21 -11 -130 -50 -155 -56 -8 -2 -15 -4 -15
-5 0 -1 -9 -3 -19 -5 -22 -4 -206 -71 -251 -90 -16 -8 -33 -11 -37 -9 -4 3 -8
0 -8 -7 0 -7 -3 -10 -6 -7 -3 4 -43 -7 -89 -22 -69 -23 -160 -47 -210 -56 -5
-1 -13 -3 -17 -4 -5 -1 -17 -4 -28 -5 -11 -1 -21 -3 -22 -5 -2 -1 -16 -3 -33
-5 -16 -2 -52 -6 -80 -9 -27 -3 -79 -8 -115 -11 -36 -4 -74 -10 -85 -14 -11
-5 -67 -23 -125 -41 -101 -32 -191 -71 -218 -97 -7 -7 -17 -13 -21 -13 -4 0
-17 -9 -29 -20 -12 -12 -22 -19 -22 -16 0 2 -16 -12 -35 -31 l-35 -35 0 -414
0 -414 2560 0 2560 0 0 391 c0 372 -1 392 -19 408 -10 9 -58 43 -107 76 -48
33 -103 75 -122 93 -19 18 -48 40 -64 48 -15 8 -28 20 -28 26 0 6 -3 8 -7 5
-3 -4 -11 -3 -17 2 -17 14 -145 51 -175 51 -31 0 -136 8 -136 10 0 1 -16 4
-35 6 -19 2 -48 5 -65 8 -16 3 -48 8 -70 11 -92 13 -267 66 -474 142 -68 25
-131 47 -140 48 -9 2 -18 4 -21 5 -3 1 -8 2 -12 1 -5 0 -8 4 -8 11 0 6 -3 9
-6 6 -6 -6 -107 26 -176 56 -21 9 -38 14 -38 11 0 -3 -10 1 -22 9 -13 8 -26
15 -30 16 -5 0 -9 0 -10 1 -2 0 -12 2 -22 4 -10 2 -22 9 -26 15 -4 7 -9 10
-11 9 -2 -2 -27 5 -55 16 l-51 18 17 66 c18 73 37 109 60 116 8 3 26 24 39 47
13 24 36 61 50 83 14 22 26 42 26 45 5 22 30 108 51 172 14 42 26 86 27 97 1
12 4 21 8 21 3 0 9 18 13 40 6 36 10 40 46 50 48 13 53 18 124 122 92 136 128
310 90 439 -9 30 -20 59 -25 65 -14 17 -19 54 -8 54 5 0 9 8 9 18 0 10 4 22 8
28 12 13 57 127 54 137 -1 4 3 7 9 7 6 0 9 7 5 15 -3 8 -1 15 4 15 6 0 10 6
10 14 0 18 71 179 83 187 5 3 8 9 8 13 0 3 7 22 16 41 15 30 15 42 5 78 -7 23
-14 47 -15 52 -1 6 -7 17 -12 25 -5 8 -10 20 -11 27 -4 27 -53 113 -74 130 -8
7 -10 13 -5 13 7 0 7 3 0 8 -6 4 -43 52 -84 107 -162 217 -408 489 -496 546
-66 43 -100 63 -105 62 -3 0 -56 17 -117 38 -62 21 -113 35 -113 32 0 -3 -7 1
-17 8 -9 8 -18 13 -20 12 -1 -2 -5 -2 -8 -2 -3 1 -13 2 -22 4 -10 1 -25 4 -33
8 -12 4 -75 20 -75 18 0 0 -27 6 -60 15 -60 15 -370 28 -410 17z m-258 -229
c-3 -3 -12 -4 -19 -1 -8 3 -5 6 6 6 11 1 17 -2 13 -5z"/>
</g>
</svg>
